<svg width="22" height="23" viewBox="0 0 22 23" fill="none" xmlns="http://www.w3.org/2000/svg">
<path d="M20.4311 0.774414C20.6681 0.905557 20.7316 1.10862 20.7316 1.37513C20.7231 2.65695 20.7273 3.94299 20.7273 5.2248C20.7273 5.27557 20.7273 5.3221 20.7273 5.37287C20.7189 5.55901 20.6384 5.69861 20.4649 5.77476C20.2872 5.8509 20.1306 5.80437 19.9994 5.67746C19.7666 5.45325 19.5381 5.2248 19.3096 4.99213C19.2546 4.93714 19.2207 4.86522 19.1699 4.78907C18.8314 5.15289 18.5436 5.47017 18.2431 5.77899C15.6827 8.43569 12.7838 10.6736 9.55471 12.4757C7.14244 13.821 4.60321 14.8744 1.95395 15.6655C1.6704 15.7501 1.4461 15.6528 1.36993 15.4116C1.28952 15.1663 1.42071 14.9632 1.71695 14.8574C3.02043 14.3921 4.34929 13.9733 5.62737 13.4403C9.04263 12.0231 12.149 10.0898 14.9675 7.69536C16.2921 6.57007 17.5279 5.35595 18.679 4.05721C19.0049 3.68917 19.2038 3.68494 19.555 4.03606C19.6481 4.12913 19.7328 4.23489 19.864 4.38295C19.864 3.42688 19.864 2.53849 19.864 1.63319C18.9795 1.63319 18.0865 1.63319 17.1216 1.63319C17.3248 1.82779 17.494 1.98008 17.6549 2.14084C17.968 2.45389 17.9511 2.69925 17.6041 2.96154C13.4186 6.10473 8.81833 8.40607 3.77796 9.83595C3.49865 9.91633 3.3209 9.87825 3.20664 9.70904C3.05005 9.48906 3.12199 9.20139 3.37592 9.0914C3.56213 9.01102 3.76103 8.96026 3.95994 8.90526C8.57287 7.5473 12.8134 5.43633 16.6899 2.58926C16.7238 2.56388 16.7534 2.53849 16.8211 2.48773C16.5884 2.25929 16.3641 2.04354 16.144 1.82356C16.0678 1.74741 15.9959 1.67549 15.9197 1.59934C15.5981 1.2736 15.6192 1.04093 15.9917 0.778644C17.4686 0.774414 18.9499 0.774414 20.4311 0.774414Z" fill="#3C4852"/>
<path d="M15.3533 22.434C15.1671 22.3494 14.9682 22.2902 14.8032 22.176C14.4223 21.9137 14.253 21.5287 14.253 21.0676C14.253 19.9677 14.2361 18.8678 14.2572 17.7679C14.2784 16.5369 14.8201 15.5765 15.8696 14.9251C15.9966 14.8447 16.022 14.7812 15.9797 14.6416C15.8188 14.1171 15.6665 13.5883 15.5141 13.0637C15.4126 12.7041 15.5903 12.4587 15.9627 12.4587C17.3593 12.4545 18.7559 12.4545 20.1525 12.4587C20.5376 12.4587 20.7111 12.7041 20.6053 13.0764C20.5207 13.3683 20.436 13.6559 20.3514 13.9478C20.2667 14.2313 20.1863 14.5147 20.1017 14.8108C20.2625 14.9208 20.4275 15.0266 20.5799 15.145C21.2909 15.6992 21.7056 16.4269 21.8368 17.3195C21.8411 17.3618 21.858 17.3999 21.8707 17.4422C21.8707 18.7409 21.8707 20.0354 21.8707 21.3341C21.8284 21.4526 21.7903 21.571 21.7353 21.6853C21.5406 22.0998 21.1893 22.3114 20.7703 22.434C18.9633 22.434 17.1604 22.434 15.3533 22.434ZM18.0491 21.588C18.8532 21.588 19.6573 21.588 20.4614 21.588C20.8423 21.588 21.0243 21.406 21.0243 21.0295C21.0285 19.9466 21.0285 18.8593 21.0243 17.7764C21.02 17.0233 20.7323 16.393 20.1652 15.8938C19.8647 15.6315 19.5346 15.4581 19.0987 15.4792C18.3327 15.5131 17.5625 15.4835 16.7922 15.4919C16.6822 15.4919 16.5637 15.5131 16.4706 15.5639C15.5692 16.0334 15.1163 16.7907 15.0994 17.7975C15.0867 18.8593 15.0952 19.9254 15.0952 20.9872C15.0952 21.4187 15.2645 21.588 15.7004 21.588C16.4875 21.588 17.2704 21.588 18.0491 21.588ZM19.6531 13.3217C18.5739 13.3217 17.5371 13.3217 16.4664 13.3217C16.5933 13.7532 16.7118 14.1636 16.8388 14.5697C16.8515 14.6078 16.9361 14.6374 16.9911 14.6374C17.7021 14.6416 18.4131 14.6416 19.1241 14.6374C19.1791 14.6374 19.268 14.5909 19.2807 14.5486C19.4161 14.1509 19.5304 13.7448 19.6531 13.3217Z" fill="#3C4852"/>
<path d="M8.19928 22.434C7.77185 22.3198 7.40366 22.121 7.17513 21.7191C6.86619 21.1733 6.91697 20.5726 7.31055 20.0819C7.33171 20.0565 7.35287 20.0269 7.37827 19.9888C6.8408 19.3162 6.82387 18.6351 7.34441 17.9921C7.22168 17.7213 7.06933 17.4844 7.01008 17.2264C6.81117 16.3676 7.43752 15.5384 8.33471 15.513C9.39695 15.4792 10.4634 15.4877 11.5299 15.513C12.1139 15.5257 12.5456 15.843 12.7741 16.3845C12.9984 16.9175 12.9096 17.4167 12.5456 17.8694C12.5287 17.8905 12.5117 17.9159 12.4863 17.9498C13.0196 18.6224 13.0407 19.2993 12.4863 19.9888C12.5075 20.0227 12.5287 20.0565 12.5541 20.0904C13.2143 20.9153 12.8545 22.0786 11.8431 22.3832C11.7838 22.4002 11.7246 22.4213 11.6653 22.4425C10.5142 22.434 9.35463 22.434 8.19928 22.434ZM9.93442 21.5879C10.4211 21.5879 10.9078 21.5879 11.3945 21.5879C11.7838 21.5879 12.0504 21.3426 12.0504 20.9957C12.0504 20.6488 11.7838 20.4076 11.3945 20.4034C10.4211 20.4034 9.45197 20.3992 8.4786 20.4034C8.08925 20.4034 7.82263 20.6488 7.82263 20.9957C7.82263 21.3426 8.08925 21.5837 8.4786 21.5879C8.96529 21.5879 9.44774 21.5879 9.93442 21.5879ZM9.93442 19.5573C10.4211 19.5573 10.9078 19.5573 11.3945 19.5573C11.7838 19.5573 12.0504 19.312 12.0504 18.9651C12.0504 18.6182 11.7838 18.3728 11.3945 18.3728C10.4211 18.3728 9.45197 18.3728 8.4786 18.3728C8.08925 18.3728 7.82263 18.6182 7.82263 18.9651C7.82263 19.312 8.08925 19.5531 8.4786 19.5573C8.96105 19.5573 9.44774 19.5573 9.93442 19.5573ZM9.92596 17.5267C10.4211 17.5267 10.912 17.531 11.4072 17.5267C11.7838 17.5225 12.0462 17.2814 12.0504 16.9429C12.0547 16.596 11.7881 16.3464 11.4029 16.3422C10.4253 16.338 9.44351 16.338 8.4659 16.3422C8.08925 16.3422 7.82686 16.5876 7.82263 16.926C7.8184 17.2729 8.08502 17.5225 8.47013 17.5267C8.95259 17.531 9.43927 17.5267 9.92596 17.5267Z" fill="#3C4852"/>
<path d="M0.202637 18.7533C0.325366 18.2965 0.541201 17.8903 0.998262 17.6957C1.22679 17.5984 1.48495 17.5392 1.73041 17.535C2.68262 17.5181 3.63483 17.5308 4.58704 17.5265C5.22185 17.5265 5.717 17.7803 5.98785 18.3641C6.246 18.9183 6.15713 19.4471 5.75932 19.9209C5.74662 19.9379 5.73816 19.959 5.73392 19.9675C5.83549 20.1494 5.96246 20.3144 6.0344 20.5005C6.32641 21.2958 5.89897 22.1292 5.08219 22.3746C5.02294 22.3915 4.96369 22.4127 4.90444 22.4338C3.74909 22.4338 2.58951 22.4338 1.43416 22.4338C1.29874 22.383 1.15485 22.345 1.02365 22.2857C0.558129 22.07 0.325366 21.6766 0.202637 21.207C0.202637 21.0674 0.202637 20.9235 0.202637 20.7839C0.325366 20.509 0.443863 20.2382 0.558129 19.9802C0.443863 19.7221 0.325366 19.4514 0.202637 19.1764C0.202637 19.0368 0.202637 18.8929 0.202637 18.7533ZM3.14814 21.5877C3.63483 21.5877 4.12151 21.5877 4.6082 21.5877C5.01448 21.5877 5.28533 21.3424 5.2811 20.9912C5.27686 20.6443 5.01024 20.4032 4.6209 20.4032C3.64752 20.4032 2.67839 20.399 1.70501 20.4032C1.3199 20.4032 1.04905 20.6528 1.05328 20.9997C1.05751 21.3466 1.32413 21.5835 1.71348 21.5877C2.1917 21.5877 2.66992 21.5877 3.14814 21.5877ZM3.16507 19.5571C3.65176 19.5571 4.13844 19.5571 4.62513 19.5571C5.01448 19.5571 5.2811 19.3118 5.2811 18.9649C5.2811 18.618 5.01448 18.3768 4.62513 18.3726C3.65176 18.3726 2.68262 18.3726 1.70925 18.3726C1.3199 18.3726 1.05328 18.618 1.05328 18.9649C1.05328 19.3118 1.3199 19.5529 1.70925 19.5571C2.1917 19.5571 2.67839 19.5571 3.16507 19.5571Z" fill="#3C4852"/>
<path d="M1.78513 9.50156C2.0052 9.51426 2.19988 9.72163 2.18718 9.93747C2.17872 10.166 1.97981 10.3437 1.75128 10.3353C1.52698 10.3268 1.33654 10.1279 1.34923 9.90361C1.3577 9.68354 1.5693 9.48887 1.78513 9.50156Z" fill="#3C4852"/>
<path d="M18.4407 17.4167C18.5465 17.5352 18.6227 17.6875 18.6523 17.8778H19.2363V18.2374H18.6481C18.5719 18.7408 18.1698 19.0285 17.6662 19.0666C18.0175 19.4262 18.428 19.9127 18.8173 20.4034H17.9836C17.6959 20.048 17.2896 19.5658 16.8833 19.1343V18.6097H17.1965C17.6281 18.6097 17.8482 18.4616 17.9075 18.2374H16.8833V17.8778H17.8948C17.8144 17.7044 17.6197 17.5944 17.2769 17.5944H16.8918V17.0571H19.2448V17.4167H18.4407Z" fill="#3C4852"/>
</svg>
