<svg width="22" height="22" viewBox="0 0 22 22" fill="none" xmlns="http://www.w3.org/2000/svg">
<path d="M21.6679 10.5821C21.6679 11.1451 21.6679 11.7123 21.6679 12.2752C21.5326 12.5377 21.3508 12.7409 21.0252 12.7409C20.1794 12.7409 19.3336 12.7451 18.4879 12.7366C18.1326 12.7324 17.8705 12.47 17.862 12.1186C17.8535 11.653 17.8409 11.1874 17.8705 10.7218C17.917 9.98951 18.2849 9.44771 18.9488 9.12178C19.0968 9.04982 19.1349 8.97363 19.1306 8.82125C19.1264 7.30589 19.1264 5.79053 19.1264 4.27094C19.1264 4.20321 19.1222 4.13549 19.118 4.05506C18.2511 4.30057 17.4011 4.54607 16.5468 4.78735C16.5468 5.17254 16.5511 5.54079 16.5468 5.90482C16.5215 7.13234 16.5511 8.35987 16.4496 9.58316C16.3312 11.0604 15.7899 12.4022 14.8003 13.5324C14.775 13.562 14.7581 13.5959 14.7285 13.6382C14.813 13.6679 14.8765 13.6933 14.9441 13.7144C16.1789 14.1504 17.4137 14.5779 18.6443 15.0224C20.1244 15.5599 21.0886 16.5885 21.5157 18.1081C21.5834 18.3451 21.6172 18.5864 21.6679 18.8277C21.6679 19.6192 21.6679 20.4065 21.6679 21.1981C21.4988 21.5663 21.207 21.6679 20.8137 21.6679C15.071 21.6595 9.32826 21.6637 3.58554 21.6637C2.6256 21.6637 1.66989 21.6637 0.709951 21.6637C0.270155 21.6637 0.0164262 21.4055 0.0121973 20.9653C0.00796854 20.343 -0.0174043 19.7208 0.020655 19.1028C0.126375 17.2192 1.03557 15.8562 2.76938 15.1155C3.83081 14.6626 4.93453 14.3155 6.01711 13.9218C6.27929 13.8245 6.54148 13.7313 6.82058 13.6298C6.77829 13.579 6.75715 13.5451 6.72755 13.5155C5.6196 12.3472 5.11637 10.9504 5.12483 9.34612C5.13329 7.89849 5.12483 6.45509 5.12483 5.00745C5.12483 4.93126 5.12483 4.8593 5.12483 4.78735C5.05717 4.76618 5.01065 4.74925 4.9599 4.73655C3.9323 4.44025 2.9047 4.14395 1.8771 3.85189C1.63183 3.78416 1.43731 3.65718 1.35696 3.40744C1.23432 3.03072 1.43731 2.70479 1.88556 2.57357C4.3129 1.87515 6.73178 1.1725 9.14643 0.465613C9.65811 0.317463 10.1656 0.156615 10.673 0C10.7872 0 10.8972 0 11.0113 0C11.0874 0.0296299 11.1636 0.0634927 11.2439 0.0888897C14.0772 0.910061 16.9147 1.73123 19.748 2.5524C20.2682 2.70479 20.3993 2.87833 20.3993 3.43284C20.3993 5.23603 20.3993 7.03922 20.3951 8.84664C20.3951 8.99479 20.4373 9.06675 20.5727 9.13024C20.7291 9.2022 20.8771 9.30379 21.0125 9.41385C21.3888 9.71014 21.5622 10.1292 21.6679 10.5821ZM10.2079 20.3938C10.2079 19.852 10.2121 19.3314 10.2036 18.8108C10.2036 18.7388 10.1402 18.6584 10.0894 18.6033C8.96036 17.4689 7.83127 16.3388 6.70217 15.2044C6.60914 15.1113 6.53725 15.0901 6.41039 15.1367C5.42084 15.5007 4.42707 15.852 3.43753 16.216C2.91316 16.4065 2.46491 16.707 2.08854 17.1261C1.23432 18.0742 1.24701 19.2256 1.31044 20.3938C4.27061 20.3938 7.22655 20.3938 10.2079 20.3938ZM20.3908 20.3938C20.3908 19.9494 20.4204 19.5092 20.3866 19.0774C20.2851 17.7779 19.6423 16.8213 18.4329 16.3261C17.3926 15.9028 16.3185 15.5642 15.2613 15.179C15.1175 15.1282 15.0372 15.1536 14.9357 15.2594C14.0392 16.1652 13.1342 17.0668 12.2335 17.9684C11.984 18.2182 11.6414 18.4298 11.5188 18.7303C11.3919 19.0393 11.4807 19.4372 11.4807 19.797C11.4807 20.0002 11.4807 20.1991 11.4807 20.3938C14.4705 20.3938 17.4264 20.3938 20.3908 20.3938ZM6.40193 8.01277C6.40193 8.54611 6.3977 9.04982 6.40193 9.5493C6.42307 11.7758 7.94967 13.6001 10.1444 13.9472C11.8063 14.2097 13.168 13.6509 14.166 12.2795C14.8384 11.3525 15.1302 10.2858 15.2359 9.16411C15.2697 8.79162 15.274 8.41489 15.2951 8.01277C12.3138 9.13871 9.37055 9.13871 6.40193 8.01277ZM17.4137 3.21273C17.3419 3.1831 17.3038 3.1704 17.2657 3.1577C15.164 2.54817 13.0665 1.93864 10.9606 1.33758C10.8718 1.31218 10.7661 1.32488 10.673 1.35028C9.08722 1.80742 7.49296 2.27304 5.8987 2.73442C5.37856 2.8868 4.85418 3.03918 4.28752 3.20426C4.36787 3.23813 4.39747 3.25082 4.4313 3.25929C6.52879 3.86035 8.62205 4.46142 10.7195 5.05402C10.8126 5.07941 10.931 5.06671 11.024 5.03708C13.0834 4.45718 15.1386 3.87305 17.1938 3.28892C17.2573 3.27199 17.3165 3.24659 17.4137 3.21273ZM6.40193 5.14714C6.40193 5.60005 6.41039 6.0191 6.3977 6.44239C6.39347 6.59054 6.44844 6.64557 6.57531 6.70059C8.41484 7.49213 10.3263 7.7461 12.3011 7.48367C13.2822 7.35245 14.2295 7.08578 15.1344 6.68366C15.1894 6.65826 15.274 6.60324 15.274 6.55667C15.2824 6.09529 15.2782 5.63392 15.2782 5.1556C15.219 5.17254 15.1852 5.17677 15.1513 5.18947C13.8193 5.56619 12.4872 5.95138 11.1509 6.31964C10.9564 6.37043 10.728 6.3662 10.5335 6.31964C10.026 6.19688 9.53125 6.04027 9.03225 5.89635C8.16957 5.65085 7.30689 5.40534 6.40193 5.14714ZM10.8506 17.4943C11.7894 16.5547 12.7451 15.6023 13.6966 14.6456C13.5909 14.616 13.464 14.6118 13.371 14.6583C12.6352 15.0478 11.8529 15.2467 11.024 15.2763C10.026 15.3102 9.08299 15.0901 8.19494 14.6287C8.11882 14.5906 8.03002 14.5821 7.91161 14.5525C8.9223 15.5599 9.8907 16.5293 10.8506 17.4943ZM20.3993 11.4625C20.3993 11.2763 20.3993 11.1112 20.3993 10.9419C20.3993 10.8869 20.3993 10.8276 20.3951 10.7726C20.357 10.4467 20.0906 10.2054 19.7692 10.2012C19.4563 10.2012 19.1729 10.4297 19.1433 10.743C19.118 10.9758 19.1391 11.217 19.1391 11.4583C19.562 11.4625 19.9679 11.4625 20.3993 11.4625Z" fill="#3C4852"/>
</svg>
