<svg width="97" height="20" viewBox="0 0 97 20" fill="none" xmlns="http://www.w3.org/2000/svg">
<g clip-path="url(#clip0_2776_6005)">
<path d="M25.6552 2.07324H27.7049V11.0365H25.6552V2.07324Z" fill="#014644"/>
<path d="M29.5564 2.07324H32.3996L34.3833 6.95619L36.3669 2.07324H39.2101V11.0365H37.1604V4.61505L35.2428 9.29732H33.3253L31.4078 4.61505V10.9696H29.358V2.07324H29.5564Z" fill="#014644"/>
<path d="M43.5076 2.07324H46.0203L49.2602 11.0365H47.2104L46.6154 9.4311H42.9126L42.3175 10.9696H40.2677L43.5076 2.07324ZM46.0203 7.75886L44.7639 4.2806L43.5076 7.75886H46.0203Z" fill="#014644"/>
<path d="M53.8891 2.07324C55.0793 2.07324 55.9388 2.3408 56.6001 2.80903C57.2613 3.34415 57.5258 4.07993 57.5258 5.01639C57.5258 5.68528 57.3274 6.28729 56.9968 6.75552C56.6662 7.22374 56.2033 7.55819 55.6082 7.75886L57.5258 11.0365H55.1454L53.4262 8.02642H52.236V11.0365H50.1863V2.07324H53.8891ZM53.823 6.35418C54.3519 6.35418 54.6825 6.2204 55.0131 6.01973C55.2776 5.81906 55.4099 5.5515 55.4099 5.15017C55.4099 4.74883 55.2776 4.48127 55.0131 4.2806C54.7487 4.07993 54.3519 3.94615 53.823 3.94615H52.236V6.28729H53.823V6.35418Z" fill="#014644"/>
<path d="M61.03 3.81237H58.2529V2.07324H65.923V3.87926H63.0798V11.0365H61.03V3.81237Z" fill="#014644"/>
<path d="M66.9147 2.07324H68.9644V11.0365H66.9147V2.07324Z" fill="#014644"/>
<path d="M70.353 6.48843C70.353 5.88642 70.4853 5.28442 70.6836 4.68241C70.9481 4.14729 71.2787 3.61218 71.6755 3.21084C72.0722 2.8095 72.6011 2.47505 73.1301 2.2075C73.6591 1.93994 74.2542 1.87305 74.9154 1.87305C75.5105 1.87305 76.0395 1.93994 76.5023 2.14061C77.0313 2.34127 77.428 2.54194 77.8247 2.87639C78.2215 3.21084 78.5521 3.54529 78.8165 4.01351C79.081 4.48174 79.2794 4.94997 79.3455 5.48509H77.0974C76.9652 5.01686 76.7007 4.61552 76.3039 4.34796C75.9072 4.0804 75.4444 3.94663 74.9154 3.94663C74.5848 3.94663 74.2542 4.01351 73.9236 4.14729C73.593 4.28107 73.3946 4.48174 73.1301 4.68241C72.9318 4.88308 72.7334 5.15064 72.6012 5.48509C72.4689 5.81953 72.4028 6.08709 72.4028 6.48843C72.4028 6.82288 72.4689 7.15733 72.6012 7.49178C72.7334 7.82622 72.9318 8.09378 73.1301 8.29445C73.3285 8.49512 73.593 8.69579 73.9236 8.82957C74.2542 8.96335 74.5187 9.03024 74.9154 9.03024C75.4444 9.03024 75.9072 8.89646 76.3039 8.6289C76.7007 8.36134 76.9652 7.96 77.0974 7.49178H79.3455C79.2794 8.02689 79.081 8.49512 78.8165 8.96335C78.5521 9.43157 78.2215 9.76602 77.8247 10.1005C77.428 10.4349 76.9652 10.7025 76.5023 10.8363C76.0395 10.97 75.4444 11.1038 74.9154 11.1038C74.2542 11.1038 73.6591 10.97 73.1301 10.7694C72.6011 10.5018 72.0722 10.1674 71.6755 9.76602C71.2787 9.36469 70.9481 8.82957 70.6836 8.29445C70.4191 7.75933 70.353 7.15733 70.353 6.48843Z" fill="#014644"/>
<path d="M84.4367 11.1033C83.1804 11.1033 82.2547 10.7689 81.5935 10.1669C80.9323 9.56488 80.6017 8.62843 80.6017 7.42441V2.07324H82.6514V7.29063C82.6514 7.89264 82.7837 8.36087 83.1143 8.69532C83.4449 9.02976 83.9077 9.16354 84.4367 9.16354C85.0318 9.16354 85.4285 9.02976 85.7591 8.69532C86.0897 8.36087 86.222 7.89264 86.222 7.29063V2.07324H88.2718V7.4913C88.2718 8.69532 87.9411 9.56488 87.2799 10.2338C86.6187 10.8358 85.6269 11.1033 84.4367 11.1033Z" fill="#014644"/>
<path d="M89.7927 4.68241C89.7927 3.81285 90.1233 3.07706 90.7184 2.60883C91.3135 2.14061 92.1731 1.87305 93.2971 1.87305C94.4212 1.87305 95.3469 2.14061 95.8759 2.67572C96.4048 3.21084 96.7354 3.94663 96.8016 4.81619H94.7518C94.7518 4.41485 94.6196 4.14729 94.4212 3.94663C94.1567 3.74596 93.8261 3.61218 93.2971 3.61218C92.8343 3.61218 92.5037 3.67907 92.3053 3.87974C92.0408 4.01352 91.9747 4.28107 91.9747 4.54863C91.9747 4.7493 92.0408 4.88308 92.1069 5.01686C92.1731 5.15064 92.3053 5.28442 92.5037 5.35131C92.6359 5.4182 92.8343 5.48509 93.0988 5.55198C93.2971 5.61887 93.5616 5.68576 93.76 5.68576C94.1567 5.75265 94.4873 5.81954 94.884 5.95331C95.2808 6.0202 95.6114 6.15398 95.942 6.35465C96.2726 6.55532 96.5371 6.75599 96.7354 7.09044C96.9338 7.42489 97.066 7.82622 97.066 8.36134C97.066 9.16402 96.8016 9.83291 96.2065 10.3011C95.6114 10.7694 94.6857 11.0369 93.4955 11.0369C92.2392 11.0369 91.3135 10.7694 90.6523 10.2343C89.9911 9.69914 89.7266 9.03024 89.7266 8.09378H91.7763C91.8425 8.89646 92.4375 9.2978 93.4955 9.2978C93.9583 9.2978 94.3551 9.23091 94.6196 9.03024C94.884 8.89646 95.0163 8.6289 95.0163 8.36134C95.0163 8.16067 94.9502 8.02689 94.884 7.89312C94.7518 7.75934 94.6195 7.69245 94.4873 7.55867C94.2889 7.49178 94.0906 7.42489 93.8922 7.358C93.6277 7.29111 93.4294 7.22422 93.1649 7.22422C92.8343 7.15733 92.4375 7.09044 92.0408 6.95666C91.6441 6.88977 91.3135 6.75599 91.049 6.55532C90.7184 6.35465 90.52 6.08709 90.3217 5.81954C89.8588 5.61887 89.7927 5.21753 89.7927 4.68241Z" fill="#014644"/>
<path d="M25.1261 18.0606V12.6426H25.5228V17.6593H28.1677V18.0606H25.1261Z" fill="#014644"/>
<path d="M37.2264 18.0606H34.251V12.6426H37.2264V12.977H34.5816V14.9837H37.0281V15.3851H34.5816V17.7262H37.2264V18.0606Z" fill="#014644"/>
<path d="M46.3509 16.1208H44.1028L43.3755 18.0606H42.9788L45.1608 12.6426H45.4252L47.6073 18.0606H47.1444L46.3509 16.1208ZM44.2351 15.7864H46.2187L45.4914 13.8466C45.4252 13.7128 45.3591 13.5121 45.293 13.2446C45.2269 13.5121 45.1608 13.7128 45.0946 13.9135L44.2351 15.7864Z" fill="#014644"/>
<path d="M53.8889 15.7195V18.0606H53.4922V12.6426H54.8146C55.4758 12.6426 56.0048 12.7764 56.3354 13.0439C56.666 13.3115 56.7983 13.6459 56.7983 14.181C56.7983 14.5155 56.7321 14.8499 56.5338 15.1175C56.3354 15.3851 56.0709 15.5188 55.6742 15.6526L57.195 18.1275H56.7321L55.3436 15.7864H53.8889V15.7195ZM53.8889 15.3851H54.9469C55.4097 15.3851 55.7403 15.2513 56.0048 15.0506C56.2693 14.8499 56.4015 14.5155 56.4015 14.181C56.4015 13.7797 56.2693 13.4453 56.0048 13.3115C55.7403 13.1108 55.3436 13.0439 54.7485 13.0439H53.8228V15.3851H53.8889Z" fill="#014644"/>
<path d="M67.3114 18.0601H66.9147L63.6747 13.2441C63.6747 13.8461 63.7408 14.2474 63.7408 14.515V18.0601H63.3441V12.6421H63.7408L66.9808 17.3912C66.9808 16.923 66.9147 16.5217 66.9147 16.1203V12.5752H67.3114V18.0601Z" fill="#014644"/>
<path d="M74.0559 18.0606V12.6426H74.4526V18.0606H74.0559Z" fill="#014644"/>
<path d="M85.1641 18.0601H84.7673L81.5274 13.2441C81.5274 13.8461 81.5935 14.2474 81.5935 14.515V18.0601H81.1968V12.6421H81.5935L84.8334 17.3912C84.8334 16.923 84.7673 16.5217 84.7673 16.1203V12.5752H85.1641V18.0601Z" fill="#014644"/>
<path d="M94.0903 15.3182H96.1401V17.7931C95.6111 17.9937 95.016 18.1275 94.3548 18.1275C93.4952 18.1275 92.834 17.86 92.3712 17.3917C91.9083 16.9235 91.71 16.2546 91.71 15.3182C91.71 14.783 91.8422 14.3148 92.0406 13.8466C92.2389 13.3784 92.5695 13.1108 93.0324 12.8432C93.4291 12.6426 93.9581 12.5088 94.487 12.5088C95.0821 12.5088 95.6111 12.6426 96.074 12.8432L95.9417 13.1777C95.4789 12.977 94.9499 12.8432 94.487 12.8432C93.7597 12.8432 93.1646 13.0439 92.7679 13.5121C92.3712 13.9804 92.1067 14.5155 92.1067 15.3182C92.1067 16.1208 92.3051 16.7228 92.7018 17.1242C93.0985 17.5255 93.6936 17.7262 94.487 17.7262C95.016 17.7262 95.4127 17.6593 95.7434 17.5255V15.6526H94.0903V15.3182Z" fill="#014644"/>
<path d="M8.92651 11.1709C9.19099 11.1709 9.32324 11.104 9.45548 10.9702C9.58772 10.9033 9.58772 10.7026 9.58772 10.6357C9.45548 10.7695 8.72814 11.2378 8.92651 11.1709Z" fill="#014644"/>
<path d="M10.5795 10.3679L10.7117 10.8361C10.7117 10.8361 10.7117 10.903 10.7779 11.1037C10.7779 11.1037 11.2407 10.8361 11.7036 10.6355C11.7697 10.6355 11.7697 10.5686 11.8358 10.5686V0H7.27344V11.1037C7.4718 11.2375 7.67017 11.3043 7.73629 11.3043C7.86853 11.2375 8.00077 11.2375 8.26526 11.3043V11.2375C8.26526 11.2375 8.19914 10.903 8.33138 10.7023C8.46362 10.5017 8.52974 10.3679 8.59586 10.301C8.66199 10.2341 8.79423 9.96656 8.79423 9.89967C8.79423 9.83278 8.86035 9.699 8.79423 9.63211C8.79423 9.49833 8.99259 9.29766 8.99259 9.29766C9.05871 9.29766 9.19096 9.16388 9.19096 9.16388L9.25708 9.0301C9.25708 9.0301 9.05871 9.09699 8.92647 9.23077C8.92647 9.23077 8.92647 9.0301 9.05871 8.96321C9.19096 8.89632 9.19096 8.82943 9.19096 8.82943C9.19096 8.82943 9.05871 8.76254 9.05871 8.62876C9.05871 8.49498 9.12484 8.42809 9.12484 8.29431C9.12484 8.22742 9.12484 8.16053 9.12484 8.16053C9.12484 8.16053 9.19096 8.22742 9.25708 8.29431C9.25708 8.3612 9.3232 8.3612 9.3232 8.42809V8.56187C9.3232 8.56187 9.45544 8.49498 9.58768 8.49498C9.71993 8.49498 9.71993 8.49498 9.71993 8.49498C9.71993 8.49498 9.71993 8.3612 9.78605 8.22742C9.85217 8.16053 9.85217 8.09365 9.85217 8.09365C9.85217 8.09365 9.98441 8.22742 9.98441 8.29431C10.0505 8.3612 10.0505 8.42809 10.0505 8.56187C10.0505 8.62876 10.0505 8.69565 9.98441 8.76254C9.91829 8.89632 9.91829 8.89632 9.98441 8.96321C10.0505 9.09699 10.1828 9.29766 10.1828 9.43144C10.1828 9.56522 10.315 9.83278 10.315 10.0334C10.5134 10.2341 10.5134 10.301 10.5795 10.3679Z" fill="#014644"/>
<path d="M11.1085 11.6386L10.844 11.1035C10.9101 11.3042 11.1085 11.7055 11.5052 12.2406C11.7697 12.5751 11.8358 12.9095 11.9019 13.1771C11.9019 13.1771 11.8358 12.8426 11.7697 12.642C11.7036 12.5082 11.5713 12.3075 11.5713 12.3075L11.5052 12.2406C11.5052 12.2406 11.4391 12.1069 11.3068 11.9062C11.1746 11.7724 11.1746 11.7055 11.1085 11.6386Z" fill="#014644"/>
<path d="M11.8366 15.0502V13.9131C11.8366 13.98 11.7699 14.0469 11.7699 14.0469C11.7699 14.0469 11.7032 14.582 11.7032 14.8495C11.7699 14.8495 11.8366 14.9164 11.8366 15.0502Z" fill="#014644"/>
<path d="M9.4552 16.12C9.85193 16.5882 10.3148 16.9226 10.3148 16.9226C10.3809 16.8558 10.3809 16.7889 10.447 16.722C10.5131 16.5882 10.447 16.4544 10.3809 16.3206C10.3148 16.1869 10.2487 15.5849 10.2487 15.5849L9.65356 14.3808L8.86011 14.1133C8.86011 14.1133 8.66174 14.4477 8.66174 14.5815C8.66174 14.7822 9.05847 15.6517 9.4552 16.12Z" fill="#014644"/>
<path d="M11.6372 17.1238L11.8356 16.9231V16.1204C11.7695 15.9867 11.6372 15.8529 11.5711 15.6522C11.3728 15.2509 11.1744 14.1137 11.1744 14.1137L10.3148 14.5151C10.3148 14.5151 10.3809 14.6489 10.3809 14.7826C10.3809 14.9164 10.5132 15.3178 10.7777 15.6522C10.976 15.9867 10.8438 16.0535 10.7777 16.2542C10.7115 16.4549 10.7777 16.5887 10.8438 16.9231C10.9099 17.2576 10.6454 17.3244 10.6454 17.3244C10.6454 17.3244 10.4471 17.2576 10.3148 17.2576C10.2487 17.2576 10.1164 17.2576 10.0503 17.2576C9.91809 17.2576 9.85196 17.0569 9.78584 16.9231C9.71972 16.7893 9.6536 16.7893 9.6536 16.7893C9.6536 16.7893 9.32299 16.1204 8.79402 15.7191C8.26505 15.3178 8.33118 14.9833 8.33118 14.9833L7.33936 13.7793V19.8663H11.9017V17.1907L11.6372 17.1238ZM8.19893 16.2542C8.19893 16.388 8.00057 16.388 8.00057 16.388V16.5887L7.93445 16.8562L7.4716 16.5218H7.53772L7.73608 16.3211C7.73608 16.3211 7.8022 16.1204 7.86833 16.0535C7.93445 15.9867 7.86833 15.9198 7.86833 15.6522C7.8022 15.3846 7.93445 14.582 7.93445 14.582C7.93445 14.582 8.3973 15.0502 8.33118 15.0502C8.26505 15.1171 8.19893 15.2509 8.19893 15.2509C8.19893 15.2509 8.13281 16.1204 8.19893 16.2542Z" fill="#014644"/>
<path d="M16.729 4.14727L17.3902 2.87637L18.0514 1.60547L14.7454 6.68908L15.5388 4.68239L14.1503 7.15731C14.1503 7.15731 15.076 5.2844 15.2082 4.88306C15.3405 4.48172 15.6049 3.74594 15.6049 3.74594C15.6049 3.74594 15.6711 3.3446 15.6049 3.27771C15.5388 3.14393 13.5552 7.62554 13.5552 7.62554C13.5552 7.62554 14.0841 6.35463 14.1503 5.95329C14.1503 5.55196 14.018 5.48507 14.018 5.48507C14.018 5.48507 13.8197 7.15731 13.0923 7.95998C12.2989 8.76266 12.6295 9.49845 12.5634 9.69911C12.4972 9.89978 12.4972 10.368 11.9021 10.5687C11.307 10.7693 10.7781 11.1038 10.7781 11.1038L11.1087 11.7058C11.1748 11.8396 11.2409 11.9065 11.307 11.9734C11.4393 12.2409 11.5715 12.3747 11.5715 12.3747L12.0344 12.3078C12.0344 12.3078 12.1666 12.1071 11.9683 11.9065C11.7699 11.7058 11.6377 11.6389 11.6377 11.572L11.5715 11.4382C11.5715 11.4382 11.7699 11.572 12.1005 11.7058C12.4311 11.8396 12.894 11.9065 12.894 11.9065L12.8278 11.572C12.8278 11.5051 12.894 11.4382 12.8278 11.3714C12.7617 11.3045 12.4972 11.2376 12.2989 11.1707C12.1005 11.1707 12.1005 11.1038 12.1005 11.1038L13.4891 11.3045C13.4891 11.3045 13.4229 11.0369 13.2907 10.9031C13.1584 10.7693 12.894 10.7025 12.894 10.7025L12.7617 10.6356L12.6956 10.5687C12.6956 10.5687 13.2907 10.7693 13.6874 10.8362C14.0841 10.9031 14.4809 11.1038 14.4809 11.1038C14.4809 11.1038 14.4148 10.8362 14.2825 10.6356C14.0841 10.4349 14.1503 10.4349 13.9519 10.368C13.7535 10.3011 13.4229 10.1673 13.4229 10.1673L13.1584 10.0336L15.0098 10.5687C15.0098 10.5687 14.8776 10.1005 14.6792 9.96667C14.4809 9.83289 13.7535 9.63222 13.7535 9.63222C13.7535 9.63222 15.0098 9.89978 15.1421 9.83289C15.2743 9.766 15.5388 9.766 15.5388 9.766C15.5388 9.766 15.2082 9.36467 15.076 9.29778C15.0098 9.23089 14.7454 9.29778 14.4809 9.29778C14.2825 9.29778 13.7535 9.164 13.7535 9.164C13.7535 9.164 14.2825 9.23089 14.6792 9.164C15.076 9.09711 15.4066 9.03022 15.6049 8.69577C15.8033 8.42821 16.0017 8.16065 16.0017 8.16065C16.0017 8.16065 16.0678 8.02687 15.9355 8.02687C15.8033 8.02687 15.6711 7.95998 15.6711 7.95998C15.6711 7.95998 15.6049 7.95998 15.4727 8.09376C15.3405 8.22754 15.0098 8.42821 14.6792 8.4951C14.4148 8.56199 14.3486 8.62888 14.2825 8.56199C14.2164 8.56199 14.018 8.56199 14.018 8.56199C14.018 8.56199 14.8776 8.36132 15.1421 8.16065C15.3405 7.95998 15.8033 7.62553 16.0678 7.15731C16.3323 6.62219 16.5306 6.22085 16.5306 6.22085C16.5306 6.22085 16.2 6.28774 16.0017 6.62219C15.8033 6.88975 15.3405 7.49176 15.076 7.69242C14.8115 7.89309 14.7454 7.95998 14.6131 8.02687C14.4809 8.09376 14.4148 8.09376 14.4148 8.09376C14.4148 8.09376 15.076 7.69242 15.2082 7.49176C15.3405 7.29109 15.7372 6.82286 16.0017 6.35463C16.2662 5.8864 16.8612 4.6155 16.8612 4.6155C16.8612 4.6155 16.3984 4.94995 16.2 5.35129C16.0017 5.68574 15.076 6.88975 15.076 6.88975L14.6792 7.29109C14.6792 7.29109 15.6711 6.08707 15.8033 5.75263C15.9355 5.41818 16.729 4.14727 16.729 4.14727Z" fill="#014644"/>
<path d="M1.45467 4.28106L0.727335 3.01016L0 1.73926L3.50443 6.75598L2.64485 4.74929L4.16565 7.22421C4.16565 7.22421 3.1077 5.3513 2.97546 4.94996C2.84322 4.61551 2.57873 3.87973 2.57873 3.87973C2.57873 3.87973 2.51261 3.47839 2.57873 3.4115C2.64485 3.27772 4.82686 7.75933 4.82686 7.75933C4.82686 7.75933 4.16565 6.42153 4.16565 6.02019C4.16565 5.61886 4.29789 5.55197 4.29789 5.55197C4.29789 5.55197 4.56237 7.22421 5.35583 8.02688C6.14929 8.82956 5.8848 9.56535 5.95092 9.76601C6.01704 9.96668 6.08316 10.4349 6.67826 10.6356C7.27335 10.8362 8.33129 11.3714 8.33129 11.3714C8.33129 11.3714 7.93456 11.5051 7.80232 11.572C7.7362 11.6389 7.60396 11.7058 7.53783 11.7727C7.47171 11.8396 7.33947 12.0403 7.33947 12.1072C7.20723 12.3747 7.14111 12.5085 7.14111 12.5085L6.67826 12.4416C6.67826 12.4416 6.54601 12.2409 6.74438 12.0403C6.94274 11.8396 7.07498 11.7727 7.07498 11.7058C7.07498 11.6389 7.14111 11.572 7.14111 11.572C7.14111 11.572 6.94274 11.7058 6.61213 11.8396C6.28153 11.9734 5.81868 12.0403 5.81868 12.0403C5.81868 12.0403 5.8848 11.7058 5.81868 11.7058C5.81868 11.6389 5.75256 11.572 5.81868 11.5051C5.8848 11.4383 6.14929 11.3714 6.34765 11.3045C6.54601 11.2376 6.54601 11.2376 6.54601 11.2376L5.09134 11.3714C5.09134 11.3714 5.15747 11.1038 5.28971 10.97C5.42195 10.8362 5.68644 10.7025 5.68644 10.7025L5.81868 10.6356L5.8848 10.5687C5.8848 10.5687 5.28971 10.8362 4.89298 10.9031C4.49625 10.97 4.09952 11.1707 4.09952 11.1707C4.09952 11.1707 4.09952 10.9031 4.29789 10.7025C4.49625 10.5018 4.43013 10.5018 4.62849 10.4349C4.82686 10.368 5.15747 10.2342 5.15747 10.2342L5.28971 10.1005L3.43831 10.7025C3.43831 10.7025 3.57055 10.2342 3.76892 10.1005C3.96728 9.89979 4.69462 9.76601 4.69462 9.76601C4.69462 9.76601 3.43831 10.0336 3.30607 10.0336C3.17382 10.0336 2.90934 9.96668 2.90934 9.96668C2.90934 9.96668 3.23995 9.49846 3.30607 9.43157C3.37219 9.36468 3.63667 9.43157 3.90116 9.36468C4.09952 9.36468 4.62849 9.29779 4.62849 9.29779C4.62849 9.29779 4.09952 9.36468 3.7028 9.29779C3.30607 9.29779 2.97546 9.16401 2.71098 8.89645C2.44649 8.62889 2.31425 8.36133 2.31425 8.36133C2.31425 8.36133 2.24813 8.22755 2.38037 8.22755C2.57873 8.22755 2.64485 8.16066 2.64485 8.16066C2.64485 8.16066 2.71098 8.16066 2.84322 8.29444C2.97546 8.42822 3.37219 8.62889 3.63667 8.69578C3.90116 8.76267 3.96728 8.76267 4.0334 8.76267C4.09952 8.76267 4.29789 8.76267 4.29789 8.76267C4.29789 8.76267 3.37219 8.562 3.17383 8.36133C2.90934 8.16066 2.51261 7.8931 2.24813 7.35799C1.98364 6.88976 1.71916 6.42153 1.71916 6.42153C1.71916 6.42153 2.04976 6.48842 2.24813 6.82287C2.44649 7.09043 2.97546 7.69244 3.23995 7.89311C3.50443 8.02688 3.57055 8.16066 3.76892 8.16066C3.90116 8.22755 3.96728 8.22755 3.96728 8.22755C3.96728 8.22755 3.30607 7.82621 3.1077 7.62555C2.97546 7.42488 2.51261 7.02354 2.24813 6.55531C1.98364 6.08708 1.32243 4.81618 1.32243 4.81618C1.32243 4.81618 1.8514 5.15063 2.04976 5.48508C2.24813 5.81953 3.23995 7.02354 3.23995 7.02354L3.63667 7.42488C3.63667 7.42488 2.57873 6.22086 2.44649 5.88642C2.31425 5.55197 1.45467 4.28106 1.45467 4.28106Z" fill="#014644"/>
</g>
<defs>
<clipPath id="clip0_2776_6005">
<rect width="97" height="20" fill="white"/>
</clipPath>
</defs>
</svg>
