<svg width="120" height="24" viewBox="0 0 120 24" fill="none" xmlns="http://www.w3.org/2000/svg">
<path d="M17.5626 21.5593C17.4005 21.5592 17.2408 21.5199 17.0973 21.4446L12.0001 18.7649L6.90295 21.4446C6.73778 21.5314 6.55161 21.5703 6.3655 21.5568C6.17938 21.5434 6.00074 21.4781 5.84977 21.3684C5.6988 21.2588 5.58152 21.109 5.51119 20.9362C5.44086 20.7634 5.42028 20.5743 5.45178 20.3904L6.42541 14.7146L2.30188 10.6956C2.1683 10.5653 2.07382 10.4003 2.02912 10.2191C1.98443 10.0379 1.99129 9.84788 2.04894 9.67041C2.10659 9.49294 2.21273 9.33514 2.35536 9.21483C2.498 9.09452 2.67144 9.01651 2.85608 8.9896L8.55481 8.16147L11.1031 2.99781C11.1952 2.84186 11.3264 2.71262 11.4837 2.62284C11.641 2.53306 11.819 2.48584 12.0001 2.48584C12.1812 2.48584 12.3592 2.53306 12.5165 2.62284C12.6738 2.71262 12.805 2.84186 12.8971 2.99781L15.4454 8.16138L21.1441 8.98951C21.3288 9.01642 21.5022 9.09443 21.6449 9.21474C21.7875 9.33505 21.8936 9.49286 21.9513 9.67032C22.0089 9.84779 22.0158 10.0378 21.9711 10.219C21.9264 10.4002 21.8319 10.5652 21.6983 10.6955L17.5748 14.7145L18.5484 20.3903C18.573 20.5338 18.566 20.681 18.5278 20.8216C18.4896 20.9621 18.4212 21.0926 18.3273 21.204C18.2334 21.3153 18.1163 21.4048 17.9842 21.4662C17.8521 21.5275 17.7082 21.5593 17.5626 21.5593L17.5626 21.5593Z" fill="#FFBD00"/>
<path d="M41.5626 21.5593C41.4005 21.5592 41.2408 21.5199 41.0973 21.4446L36.0001 18.7649L30.903 21.4446C30.7378 21.5314 30.5516 21.5703 30.3655 21.5568C30.1794 21.5434 30.0007 21.4781 29.8498 21.3684C29.6988 21.2588 29.5815 21.109 29.5112 20.9362C29.4409 20.7634 29.4203 20.5743 29.4518 20.3904L30.4254 14.7146L26.3019 10.6956C26.1683 10.5653 26.0738 10.4003 26.0291 10.2191C25.9844 10.0379 25.9913 9.84788 26.0489 9.67041C26.1066 9.49294 26.2127 9.33514 26.3554 9.21483C26.498 9.09452 26.6714 9.01651 26.8561 8.9896L32.5548 8.16147L35.1031 2.99781C35.1952 2.84186 35.3264 2.71262 35.4837 2.62284C35.641 2.53306 35.819 2.48584 36.0001 2.48584C36.1812 2.48584 36.3592 2.53306 36.5165 2.62284C36.6738 2.71262 36.805 2.84186 36.8971 2.99781L39.4454 8.16138L45.1441 8.98951C45.3288 9.01642 45.5022 9.09443 45.6449 9.21474C45.7875 9.33505 45.8936 9.49286 45.9513 9.67032C46.0089 9.84779 46.0158 10.0378 45.9711 10.219C45.9264 10.4002 45.8319 10.5652 45.6983 10.6955L41.5748 14.7145L42.5484 20.3903C42.573 20.5338 42.566 20.681 42.5278 20.8216C42.4896 20.9621 42.4212 21.0926 42.3273 21.204C42.2334 21.3153 42.1163 21.4048 41.9842 21.4662C41.8521 21.5275 41.7082 21.5593 41.5626 21.5593L41.5626 21.5593Z" fill="#FFBD00"/>
<path d="M65.5626 21.5593C65.4005 21.5592 65.2408 21.5199 65.0973 21.4446L60.0001 18.7649L54.903 21.4446C54.7378 21.5314 54.5516 21.5703 54.3655 21.5568C54.1794 21.5434 54.0007 21.4781 53.8498 21.3684C53.6988 21.2588 53.5815 21.109 53.5112 20.9362C53.4409 20.7634 53.4203 20.5743 53.4518 20.3904L54.4254 14.7146L50.3019 10.6956C50.1683 10.5653 50.0738 10.4003 50.0291 10.2191C49.9844 10.0379 49.9913 9.84788 50.0489 9.67041C50.1066 9.49294 50.2127 9.33514 50.3554 9.21483C50.498 9.09452 50.6714 9.01651 50.8561 8.9896L56.5548 8.16147L59.1031 2.99781C59.1952 2.84186 59.3264 2.71262 59.4837 2.62284C59.641 2.53306 59.819 2.48584 60.0001 2.48584C60.1812 2.48584 60.3592 2.53306 60.5165 2.62284C60.6738 2.71262 60.805 2.84186 60.8971 2.99781L63.4454 8.16138L69.1441 8.98951C69.3288 9.01642 69.5022 9.09443 69.6449 9.21474C69.7875 9.33505 69.8936 9.49286 69.9513 9.67032C70.0089 9.84779 70.0158 10.0378 69.9711 10.219C69.9264 10.4002 69.8319 10.5652 69.6983 10.6955L65.5748 14.7145L66.5484 20.3903C66.573 20.5338 66.566 20.681 66.5278 20.8216C66.4896 20.9621 66.4212 21.0926 66.3273 21.204C66.2334 21.3153 66.1163 21.4048 65.9842 21.4662C65.8521 21.5275 65.7082 21.5593 65.5626 21.5593L65.5626 21.5593Z" fill="#FFBD00"/>
<path d="M89.5626 21.5593C89.4005 21.5592 89.2408 21.5199 89.0973 21.4446L84.0001 18.7649L78.903 21.4446C78.7378 21.5314 78.5516 21.5703 78.3655 21.5568C78.1794 21.5434 78.0007 21.4781 77.8498 21.3684C77.6988 21.2588 77.5815 21.109 77.5112 20.9362C77.4409 20.7634 77.4203 20.5743 77.4518 20.3904L78.4254 14.7146L74.3019 10.6956C74.1683 10.5653 74.0738 10.4003 74.0291 10.2191C73.9844 10.0379 73.9913 9.84788 74.0489 9.67041C74.1066 9.49294 74.2127 9.33514 74.3554 9.21483C74.498 9.09452 74.6714 9.01651 74.8561 8.9896L80.5548 8.16147L83.1031 2.99781C83.1952 2.84186 83.3264 2.71262 83.4837 2.62284C83.641 2.53306 83.819 2.48584 84.0001 2.48584C84.1812 2.48584 84.3592 2.53306 84.5165 2.62284C84.6738 2.71262 84.805 2.84186 84.8971 2.99781L87.4454 8.16138L93.1441 8.98951C93.3288 9.01642 93.5022 9.09443 93.6449 9.21474C93.7875 9.33505 93.8936 9.49286 93.9513 9.67032C94.0089 9.84779 94.0158 10.0378 93.9711 10.219C93.9264 10.4002 93.8319 10.5652 93.6983 10.6955L89.5748 14.7145L90.5484 20.3903C90.573 20.5338 90.566 20.681 90.5278 20.8216C90.4896 20.9621 90.4212 21.0926 90.3273 21.204C90.2334 21.3153 90.1163 21.4048 89.9842 21.4662C89.8521 21.5275 89.7082 21.5593 89.5626 21.5593L89.5626 21.5593Z" fill="#FFBD00"/>
<path d="M113.563 22.0735C113.401 22.0734 113.241 22.034 113.097 21.9587L108 19.2791L102.903 21.9587C102.738 22.0456 102.552 22.0844 102.365 22.071C102.179 22.0575 102.001 21.9923 101.85 21.8826C101.699 21.7729 101.582 21.6232 101.511 21.4504C101.441 21.2775 101.42 21.0885 101.452 20.9045L102.425 15.2288L98.3019 11.2098C98.1683 11.0795 98.0738 10.9144 98.0291 10.7333C97.9844 10.5521 97.9913 10.362 98.0489 10.1846C98.1066 10.0071 98.2127 9.8493 98.3554 9.72899C98.498 9.60868 98.6714 9.53067 98.8561 9.50376L104.555 8.67563L107.103 3.51197C107.195 3.35602 107.326 3.22678 107.484 3.137C107.641 3.04722 107.819 3 108 3C108.181 3 108.359 3.04722 108.516 3.137C108.674 3.22678 108.805 3.35602 108.897 3.51197L111.445 8.67554L117.144 9.50367C117.329 9.53058 117.502 9.60859 117.645 9.7289C117.787 9.84921 117.894 10.007 117.951 10.1845C118.009 10.362 118.016 10.552 117.971 10.7332C117.926 10.9143 117.832 11.0794 117.698 11.2097L113.575 15.2287L114.548 20.9044C114.573 21.048 114.566 21.1952 114.528 21.3357C114.49 21.4763 114.421 21.6068 114.327 21.7181C114.233 21.8295 114.116 21.919 113.984 21.9803C113.852 22.0417 113.708 22.0735 113.563 22.0734L113.563 22.0735Z" fill="#3C4852" fill-opacity="0.15"/>
<path fill-rule="evenodd" clip-rule="evenodd" d="M108 3C107.819 3.00002 107.641 3.04724 107.484 3.137C107.326 3.22678 107.195 3.35602 107.103 3.51197L104.555 8.67563L98.8561 9.50376C98.6714 9.53067 98.498 9.60868 98.3554 9.72899C98.2127 9.8493 98.1066 10.0071 98.0489 10.1846C97.9913 10.362 97.9844 10.5521 98.0291 10.7333C98.0738 10.9144 98.1683 11.0795 98.3019 11.2098L102.425 15.2288L101.452 20.9045C101.42 21.0885 101.441 21.2775 101.511 21.4504C101.582 21.6232 101.699 21.7729 101.85 21.8826C102.001 21.9923 102.179 22.0575 102.365 22.071C102.552 22.0844 102.738 22.0456 102.903 21.9587L108 19.2791V3Z" fill="#FFBD00"/>
</svg>
