<svg width="80" height="16" viewBox="0 0 80 16" fill="none" xmlns="http://www.w3.org/2000/svg">
<path d="M11.7083 14.3729C11.6002 14.3728 11.4938 14.3466 11.3981 14.2964L7.99994 12.5099L4.60183 14.2964C4.49171 14.3543 4.3676 14.3802 4.24352 14.3712C4.11945 14.3622 4.00035 14.3187 3.89971 14.2456C3.79906 14.1725 3.72087 14.0727 3.67399 13.9575C3.6271 13.8422 3.61338 13.7162 3.63438 13.5936L4.28347 9.80973L1.53445 7.1304C1.44539 7.04354 1.38241 6.93351 1.35261 6.81273C1.32281 6.69196 1.32738 6.56525 1.36582 6.44694C1.40425 6.32863 1.47501 6.22343 1.5701 6.14322C1.66519 6.06301 1.78082 6.011 1.90391 5.99307L5.70307 5.44098L7.40194 1.99854C7.46334 1.89457 7.55079 1.80841 7.65566 1.74856C7.76052 1.68871 7.87918 1.65723 7.99992 1.65723C8.12066 1.65723 8.23932 1.68871 8.34419 1.74856C8.44905 1.80841 8.5365 1.89457 8.5979 1.99854L10.2968 5.44092L14.0959 5.99301C14.219 6.01094 14.3347 6.06295 14.4298 6.14316C14.5248 6.22337 14.5956 6.32857 14.634 6.44688C14.6725 6.56519 14.6771 6.6919 14.6473 6.81267C14.6175 6.93345 14.5545 7.04348 14.4654 7.13034L11.7164 9.80967L12.3655 13.5935C12.3819 13.6892 12.3772 13.7874 12.3517 13.8811C12.3263 13.9748 12.2806 14.0618 12.218 14.136C12.1554 14.2102 12.0774 14.2699 11.9893 14.3108C11.9013 14.3517 11.8053 14.3729 11.7082 14.3729L11.7083 14.3729Z" fill="#FFBD00"/>
<path d="M27.7083 14.3729C27.6002 14.3728 27.4938 14.3466 27.3981 14.2964L23.9999 12.5099L20.6018 14.2964C20.4917 14.3543 20.3676 14.3802 20.2435 14.3712C20.1194 14.3622 20.0004 14.3187 19.8997 14.2456C19.7991 14.1725 19.7209 14.0727 19.674 13.9575C19.6271 13.8422 19.6134 13.7162 19.6344 13.5936L20.2835 9.80973L17.5344 7.1304C17.4454 7.04354 17.3824 6.93351 17.3526 6.81273C17.3228 6.69196 17.3274 6.56525 17.3658 6.44694C17.4043 6.32863 17.475 6.22343 17.5701 6.14322C17.6652 6.06301 17.7808 6.011 17.9039 5.99307L21.7031 5.44098L23.4019 1.99854C23.4633 1.89457 23.5508 1.80841 23.6557 1.74856C23.7605 1.68871 23.8792 1.65723 23.9999 1.65723C24.1207 1.65723 24.2393 1.68871 24.3442 1.74856C24.449 1.80841 24.5365 1.89457 24.5979 1.99854L26.2968 5.44092L30.0959 5.99301C30.219 6.01094 30.3347 6.06295 30.4298 6.14316C30.5248 6.22337 30.5956 6.32857 30.634 6.44688C30.6725 6.56519 30.6771 6.6919 30.6473 6.81267C30.6175 6.93345 30.5545 7.04348 30.4654 7.13034L27.7164 9.80967L28.3655 13.5935C28.3819 13.6892 28.3772 13.7874 28.3517 13.8811C28.3263 13.9748 28.2806 14.0618 28.218 14.136C28.1554 14.2102 28.0774 14.2699 27.9893 14.3108C27.9013 14.3517 27.8053 14.3729 27.7082 14.3729L27.7083 14.3729Z" fill="#FFBD00"/>
<path d="M43.7083 14.3729C43.6002 14.3728 43.4938 14.3466 43.3981 14.2964L39.9999 12.5099L36.6018 14.2964C36.4917 14.3543 36.3676 14.3802 36.2435 14.3712C36.1194 14.3622 36.0004 14.3187 35.8997 14.2456C35.7991 14.1725 35.7209 14.0727 35.674 13.9575C35.6271 13.8422 35.6134 13.7162 35.6344 13.5936L36.2835 9.80973L33.5344 7.1304C33.4454 7.04354 33.3824 6.93351 33.3526 6.81273C33.3228 6.69196 33.3274 6.56525 33.3658 6.44694C33.4043 6.32863 33.475 6.22343 33.5701 6.14322C33.6652 6.06301 33.7808 6.011 33.9039 5.99307L37.7031 5.44098L39.4019 1.99854C39.4633 1.89457 39.5508 1.80841 39.6557 1.74856C39.7605 1.68871 39.8792 1.65723 39.9999 1.65723C40.1207 1.65723 40.2393 1.68871 40.3442 1.74856C40.449 1.80841 40.5365 1.89457 40.5979 1.99854L42.2968 5.44092L46.0959 5.99301C46.219 6.01094 46.3347 6.06295 46.4298 6.14316C46.5248 6.22337 46.5956 6.32857 46.634 6.44688C46.6725 6.56519 46.6771 6.6919 46.6473 6.81267C46.6175 6.93345 46.5545 7.04348 46.4654 7.13034L43.7164 9.80967L44.3655 13.5935C44.3819 13.6892 44.3772 13.7874 44.3517 13.8811C44.3263 13.9748 44.2806 14.0618 44.218 14.136C44.1554 14.2102 44.0774 14.2699 43.9893 14.3108C43.9013 14.3517 43.8053 14.3729 43.7082 14.3729L43.7083 14.3729Z" fill="#FFBD00"/>
<path d="M59.7083 14.3729C59.6002 14.3728 59.4938 14.3466 59.3981 14.2964L55.9999 12.5099L52.6018 14.2964C52.4917 14.3543 52.3676 14.3802 52.2435 14.3712C52.1194 14.3622 52.0004 14.3187 51.8997 14.2456C51.7991 14.1725 51.7209 14.0727 51.674 13.9575C51.6271 13.8422 51.6134 13.7162 51.6344 13.5936L52.2835 9.80973L49.5344 7.1304C49.4454 7.04354 49.3824 6.93351 49.3526 6.81273C49.3228 6.69196 49.3274 6.56525 49.3658 6.44694C49.4043 6.32863 49.475 6.22343 49.5701 6.14322C49.6652 6.06301 49.7808 6.011 49.9039 5.99307L53.7031 5.44098L55.4019 1.99854C55.4633 1.89457 55.5508 1.80841 55.6557 1.74856C55.7605 1.68871 55.8792 1.65723 55.9999 1.65723C56.1207 1.65723 56.2393 1.68871 56.3442 1.74856C56.449 1.80841 56.5365 1.89457 56.5979 1.99854L58.2968 5.44092L62.0959 5.99301C62.219 6.01094 62.3347 6.06295 62.4298 6.14316C62.5248 6.22337 62.5956 6.32857 62.634 6.44688C62.6725 6.56519 62.6771 6.6919 62.6473 6.81267C62.6175 6.93345 62.5545 7.04348 62.4654 7.13034L59.7164 9.80967L60.3655 13.5935C60.3819 13.6892 60.3772 13.7874 60.3517 13.8811C60.3263 13.9748 60.2806 14.0618 60.218 14.136C60.1554 14.2102 60.0774 14.2699 59.9893 14.3108C59.9013 14.3517 59.8053 14.3729 59.7082 14.3729L59.7083 14.3729Z" fill="#FFBD00"/>
<path d="M75.7083 14.3729C75.6002 14.3728 75.4938 14.3466 75.3981 14.2964L71.9999 12.5099L68.6018 14.2964C68.4917 14.3543 68.3676 14.3802 68.2435 14.3712C68.1194 14.3622 68.0004 14.3187 67.8997 14.2456C67.7991 14.1725 67.7209 14.0727 67.674 13.9575C67.6271 13.8422 67.6134 13.7162 67.6344 13.5936L68.2835 9.80973L65.5344 7.1304C65.4454 7.04354 65.3824 6.93351 65.3526 6.81273C65.3228 6.69196 65.3274 6.56525 65.3658 6.44694C65.4043 6.32863 65.475 6.22343 65.5701 6.14322C65.6652 6.06301 65.7808 6.011 65.9039 5.99307L69.7031 5.44098L71.4019 1.99854C71.4633 1.89457 71.5508 1.80841 71.6557 1.74856C71.7605 1.68871 71.8792 1.65723 71.9999 1.65723C72.1207 1.65723 72.2393 1.68871 72.3442 1.74856C72.449 1.80841 72.5365 1.89457 72.5979 1.99854L74.2968 5.44092L78.0959 5.99301C78.219 6.01094 78.3347 6.06295 78.4298 6.14316C78.5248 6.22337 78.5956 6.32857 78.634 6.44688C78.6725 6.56519 78.6771 6.6919 78.6473 6.81267C78.6175 6.93345 78.5545 7.04348 78.4654 7.13034L75.7164 9.80967L76.3655 13.5935C76.3819 13.6892 76.3772 13.7874 76.3517 13.8811C76.3263 13.9748 76.2806 14.0618 76.218 14.136C76.1554 14.2102 76.0774 14.2699 75.9893 14.3108C75.9013 14.3517 75.8053 14.3729 75.7082 14.3729L75.7083 14.3729Z" fill="#3C4852" fill-opacity="0.15"/>
<path fill-rule="evenodd" clip-rule="evenodd" d="M74 4.84089L72.5977 1.99952C72.5363 1.89555 72.4489 1.80939 72.344 1.74954C72.2391 1.68968 72.1205 1.6582 71.9997 1.6582C71.879 1.6582 71.7603 1.68968 71.6555 1.74954C71.5506 1.80939 71.4632 1.89555 71.4018 1.99952L69.7029 5.44196L65.9037 5.99404C65.7806 6.01198 65.665 6.06399 65.5699 6.1442C65.4748 6.2244 65.4041 6.32961 65.3656 6.44792C65.3272 6.56623 65.3226 6.69293 65.3524 6.81371C65.3822 6.93449 65.4452 7.04452 65.5343 7.13138L68.2833 9.81071L67.6342 13.5946C67.6132 13.7172 67.6269 13.8432 67.6738 13.9584C67.7207 14.0737 67.7989 14.1735 67.8995 14.2466C68.0002 14.3197 68.1193 14.3632 68.2433 14.3722C68.3674 14.3812 68.4915 14.3552 68.6016 14.2974L71.9998 12.5109L74 13.5625V4.84089Z" fill="#FFBD00"/>
</svg>
