<svg width="80" height="16" viewBox="0 0 80 16" fill="none" xmlns="http://www.w3.org/2000/svg">
<path d="M11.7081 14.373C11.6 14.373 11.4936 14.3467 11.3979 14.2965L7.99976 12.5101L4.60164 14.2965C4.49153 14.3544 4.36742 14.3803 4.24334 14.3713C4.11926 14.3624 4.00017 14.3189 3.89952 14.2457C3.79888 14.1726 3.72069 14.0728 3.6738 13.9576C3.62691 13.8424 3.6132 13.7163 3.6342 13.5937L4.28328 9.80985L1.53426 7.13052C1.44521 7.04366 1.38222 6.93363 1.35242 6.81286C1.32263 6.69208 1.3272 6.56538 1.36564 6.44706C1.40407 6.32875 1.47483 6.22355 1.56992 6.14334C1.66501 6.06314 1.78063 6.01113 1.90373 5.99319L5.70288 5.4411L7.40176 1.99866C7.46316 1.8947 7.55061 1.80854 7.65547 1.74868C7.76034 1.68883 7.87899 1.65735 7.99974 1.65735C8.12048 1.65735 8.23914 1.68883 8.344 1.74868C8.44887 1.80854 8.53631 1.8947 8.59772 1.99866L10.2966 5.44104L14.0958 5.99313C14.2189 6.01107 14.3345 6.06308 14.4296 6.14328C14.5247 6.22349 14.5954 6.32869 14.6339 6.447C14.6723 6.56532 14.6769 6.69202 14.6471 6.8128C14.6173 6.93357 14.5543 7.04361 14.4652 7.13046L11.7162 9.80979L12.3653 13.5936C12.3817 13.6893 12.377 13.7875 12.3515 13.8812C12.3261 13.9749 12.2804 14.0619 12.2179 14.1361C12.1553 14.2103 12.0772 14.27 11.9891 14.3109C11.9011 14.3518 11.8052 14.373 11.7081 14.373L11.7081 14.373Z" fill="#FFBD00"/>
<path d="M27.7081 14.373C27.6 14.373 27.4936 14.3467 27.3979 14.2965L23.9998 12.5101L20.6016 14.2965C20.4915 14.3544 20.3674 14.3803 20.2433 14.3713C20.1193 14.3624 20.0002 14.3189 19.8995 14.2457C19.7989 14.1726 19.7207 14.0728 19.6738 13.9576C19.6269 13.8424 19.6132 13.7163 19.6342 13.5937L20.2833 9.80985L17.5343 7.13052C17.4452 7.04366 17.3822 6.93363 17.3524 6.81286C17.3226 6.69208 17.3272 6.56538 17.3656 6.44706C17.4041 6.32875 17.4748 6.22355 17.5699 6.14334C17.665 6.06314 17.7806 6.01113 17.9037 5.99319L21.7029 5.4411L23.4018 1.99866C23.4632 1.8947 23.5506 1.80854 23.6555 1.74868C23.7603 1.68883 23.879 1.65735 23.9997 1.65735C24.1205 1.65735 24.2391 1.68883 24.344 1.74868C24.4489 1.80854 24.5363 1.8947 24.5977 1.99866L26.2966 5.44104L30.0958 5.99313C30.2189 6.01107 30.3345 6.06308 30.4296 6.14328C30.5247 6.22349 30.5954 6.32869 30.6339 6.447C30.6723 6.56532 30.6769 6.69202 30.6471 6.8128C30.6173 6.93357 30.5543 7.04361 30.4652 7.13046L27.7162 9.80979L28.3653 13.5936C28.3817 13.6893 28.377 13.7875 28.3515 13.8812C28.3261 13.9749 28.2804 14.0619 28.2179 14.1361C28.1553 14.2103 28.0772 14.27 27.9891 14.3109C27.9011 14.3518 27.8052 14.373 27.7081 14.373L27.7081 14.373Z" fill="#FFBD00"/>
<path d="M43.7081 14.373C43.6 14.373 43.4936 14.3467 43.3979 14.2965L39.9998 12.5101L36.6016 14.2965C36.4915 14.3544 36.3674 14.3803 36.2433 14.3713C36.1193 14.3624 36.0002 14.3189 35.8995 14.2457C35.7989 14.1726 35.7207 14.0728 35.6738 13.9576C35.6269 13.8424 35.6132 13.7163 35.6342 13.5937L36.2833 9.80985L33.5343 7.13052C33.4452 7.04366 33.3822 6.93363 33.3524 6.81286C33.3226 6.69208 33.3272 6.56538 33.3656 6.44706C33.4041 6.32875 33.4748 6.22355 33.5699 6.14334C33.665 6.06314 33.7806 6.01113 33.9037 5.99319L37.7029 5.4411L39.4018 1.99866C39.4632 1.8947 39.5506 1.80854 39.6555 1.74868C39.7603 1.68883 39.879 1.65735 39.9997 1.65735C40.1205 1.65735 40.2391 1.68883 40.344 1.74868C40.4489 1.80854 40.5363 1.8947 40.5977 1.99866L42.2966 5.44104L46.0958 5.99313C46.2189 6.01107 46.3345 6.06308 46.4296 6.14328C46.5247 6.22349 46.5954 6.32869 46.6339 6.447C46.6723 6.56532 46.6769 6.69202 46.6471 6.8128C46.6173 6.93357 46.5543 7.04361 46.4652 7.13046L43.7162 9.80979L44.3653 13.5936C44.3817 13.6893 44.377 13.7875 44.3515 13.8812C44.3261 13.9749 44.2804 14.0619 44.2179 14.1361C44.1553 14.2103 44.0772 14.27 43.9891 14.3109C43.9011 14.3518 43.8052 14.373 43.7081 14.373L43.7081 14.373Z" fill="#FFBD00"/>
<path d="M59.7081 14.373C59.6 14.373 59.4936 14.3467 59.3979 14.2965L55.9998 12.5101L52.6016 14.2965C52.4915 14.3544 52.3674 14.3803 52.2433 14.3713C52.1193 14.3624 52.0002 14.3189 51.8995 14.2457C51.7989 14.1726 51.7207 14.0728 51.6738 13.9576C51.6269 13.8424 51.6132 13.7163 51.6342 13.5937L52.2833 9.80985L49.5343 7.13052C49.4452 7.04366 49.3822 6.93363 49.3524 6.81286C49.3226 6.69208 49.3272 6.56538 49.3656 6.44706C49.4041 6.32875 49.4748 6.22355 49.5699 6.14334C49.665 6.06314 49.7806 6.01113 49.9037 5.99319L53.7029 5.4411L55.4018 1.99866C55.4632 1.8947 55.5506 1.80854 55.6555 1.74868C55.7603 1.68883 55.879 1.65735 55.9997 1.65735C56.1205 1.65735 56.2391 1.68883 56.344 1.74868C56.4489 1.80854 56.5363 1.8947 56.5977 1.99866L58.2966 5.44104L62.0958 5.99313C62.2189 6.01107 62.3345 6.06308 62.4296 6.14328C62.5247 6.22349 62.5954 6.32869 62.6339 6.447C62.6723 6.56532 62.6769 6.69202 62.6471 6.8128C62.6173 6.93357 62.5543 7.04361 62.4652 7.13046L59.7162 9.80979L60.3653 13.5936C60.3817 13.6893 60.377 13.7875 60.3515 13.8812C60.3261 13.9749 60.2804 14.0619 60.2179 14.1361C60.1553 14.2103 60.0772 14.27 59.9891 14.3109C59.9011 14.3518 59.8052 14.373 59.7081 14.373L59.7081 14.373Z" fill="#FFBD00"/>
<path d="M75.7081 14.373C75.6 14.373 75.4936 14.3467 75.3979 14.2965L71.9998 12.5101L68.6016 14.2965C68.4915 14.3544 68.3674 14.3803 68.2433 14.3713C68.1193 14.3624 68.0002 14.3189 67.8995 14.2457C67.7989 14.1726 67.7207 14.0728 67.6738 13.9576C67.6269 13.8424 67.6132 13.7163 67.6342 13.5937L68.2833 9.80985L65.5343 7.13052C65.4452 7.04366 65.3822 6.93363 65.3524 6.81286C65.3226 6.69208 65.3272 6.56538 65.3656 6.44706C65.4041 6.32875 65.4748 6.22355 65.5699 6.14334C65.665 6.06314 65.7806 6.01113 65.9037 5.99319L69.7029 5.4411L71.4018 1.99866C71.4632 1.8947 71.5506 1.80854 71.6555 1.74868C71.7603 1.68883 71.879 1.65735 71.9997 1.65735C72.1205 1.65735 72.2391 1.68883 72.344 1.74868C72.4489 1.80854 72.5363 1.8947 72.5977 1.99866L74.2966 5.44104L78.0958 5.99313C78.2189 6.01107 78.3345 6.06308 78.4296 6.14328C78.5247 6.22349 78.5954 6.32869 78.6339 6.447C78.6723 6.56532 78.6769 6.69202 78.6471 6.8128C78.6173 6.93357 78.5543 7.04361 78.4652 7.13046L75.7162 9.80979L76.3653 13.5936C76.3817 13.6893 76.377 13.7875 76.3515 13.8812C76.3261 13.9749 76.2804 14.0619 76.2179 14.1361C76.1553 14.2103 76.0772 14.27 75.9891 14.3109C75.9011 14.3518 75.8052 14.373 75.7081 14.373L75.7081 14.373Z" fill="#3C4852" fill-opacity="0.15"/>
<path fill-rule="evenodd" clip-rule="evenodd" d="M74 4.84003L72.5977 1.99866C72.5363 1.8947 72.4489 1.80854 72.344 1.74868C72.2391 1.68883 72.1205 1.65735 71.9997 1.65735C71.879 1.65735 71.7603 1.68883 71.6555 1.74868C71.5506 1.80854 71.4632 1.8947 71.4018 1.99866L69.7029 5.4411L65.9037 5.99319C65.7806 6.01113 65.665 6.06314 65.5699 6.14334C65.4748 6.22355 65.4041 6.32875 65.3656 6.44706C65.3272 6.56538 65.3226 6.69208 65.3524 6.81286C65.3822 6.93363 65.4452 7.04366 65.5343 7.13052L68.2833 9.80985L67.6342 13.5937C67.6132 13.7163 67.6269 13.8424 67.6738 13.9576C67.7207 14.0728 67.7989 14.1726 67.8995 14.2457C68.0002 14.3189 68.1193 14.3624 68.2433 14.3713C68.3674 14.3803 68.4915 14.3544 68.6016 14.2965L71.9998 12.5101L74 13.5616V4.84003Z" fill="#FFBD00"/>
</svg>
