<svg width="20" height="20" viewBox="0 0 20 20" fill="none" xmlns="http://www.w3.org/2000/svg">
<path fill-rule="evenodd" clip-rule="evenodd" d="M19.9948 2.00981C19.9943 1.47901 19.7832 0.9701 19.4079 0.594767C19.0325 0.219434 18.5236 0.00838271 17.9928 0.00785323C17.2138 0.00285323 18.0428 0.00604073 12.9838 4.07289e-05C12.8525 -0.0011465 12.7222 0.0236338 12.6004 0.0727946C12.4787 0.121956 12.3677 0.194638 12.2741 0.286662C12.1804 0.378686 12.1057 0.488052 12.0544 0.608927C12.003 0.729803 11.976 0.859928 11.9748 0.991252C11.9732 1.12057 11.9975 1.24889 12.0462 1.36869C12.0949 1.4885 12.1671 1.59702 12.2585 1.68852C12.3499 1.78001 12.4587 1.85257 12.5784 1.90141C12.6982 1.95025 12.8265 1.97466 12.9558 1.97319L15.3578 1.99711C15.8038 1.99711 16.0138 2.52293 15.6988 2.83793L12.0688 6.46928C11.8866 6.65788 11.7859 6.91021 11.7881 7.1724C11.7904 7.4346 11.8956 7.68524 12.081 7.87065C12.2664 8.05605 12.5172 8.16134 12.7794 8.16362C13.0416 8.16589 13.2942 8.06501 13.4828 7.88285L17.1148 4.25102C17.4298 3.93602 17.9808 4.17223 17.9808 4.61723L17.9858 7.00297C17.9858 7.55497 18.4558 8.02397 19.0078 8.02397C19.1391 8.02292 19.269 7.99609 19.3899 7.94486C19.5108 7.89364 19.6205 7.81923 19.7126 7.72563C19.8047 7.63202 19.8775 7.52118 19.9268 7.39945C19.976 7.27773 20.0009 7.14748 19.9998 7.01615L19.9948 2.00981ZM14.1158 15.5782C13.4208 15.2042 12.7178 14.778 11.9908 14.481C10.5868 13.908 10.6818 15.6019 9.6778 16.1509C9.0258 16.5079 8.1078 15.861 7.5378 15.503C6.53384 14.8617 5.65096 14.0484 4.9298 13.1001C4.5558 12.6131 3.72681 11.6972 3.82981 11.0142C3.99081 9.9302 5.2738 9.87585 4.9068 8.54985C4.7108 7.83985 4.35981 7.14107 4.09681 6.45707C3.74381 5.54007 3.59981 4.95297 2.57181 5.00297C1.83181 5.03897 1.33781 5.35621 0.88181 5.95121C-0.351191 7.55821 -0.165193 9.72483 0.663807 11.4878C1.83681 13.9828 3.8488 16.335 5.9988 17.855C7.4608 18.889 9.3868 19.8279 11.1568 19.9869C12.4528 20.1039 14.2668 19.4031 14.7298 17.9961L14.6508 18.2339L14.7308 17.9961C14.7758 17.8541 14.8008 17.783 14.8108 17.751L14.7308 17.9932C15.1388 16.7522 15.1878 16.1552 14.1158 15.5782ZM14.6508 18.2339C14.6408 18.2649 14.6388 18.2699 14.6508 18.2339V18.2339ZM14.8108 17.751C14.8178 17.727 14.8188 17.725 14.8108 17.751V17.751Z" fill="#014644"/>
</svg>
