<svg width="72" height="72" viewBox="0 0 72 72" fill="none" xmlns="http://www.w3.org/2000/svg">
<rect width="72" height="72" rx="4" fill="white"/>
<path d="M35.7365 39.2386C36.4398 39.2386 36.7915 39.0635 37.1431 38.7133C37.4948 38.5382 37.4948 38.013 37.4948 37.8379C37.1431 38.1881 35.2091 39.4137 35.7365 39.2386Z" fill="#014644"/>
<path d="M40.1314 37.138L40.4831 38.3636C40.4831 38.3636 40.4831 38.5387 40.6589 39.0639C40.6589 39.0639 41.8897 38.3636 43.1204 37.8383C43.2963 37.8383 43.2963 37.6633 43.4721 37.6633V10H31.3403V39.0639C31.8678 39.4141 32.3953 39.5892 32.5711 39.5892C32.9227 39.4141 33.2744 39.4141 33.9777 39.5892V39.4141C33.9777 39.4141 33.8018 38.5387 34.1535 38.0134C34.5051 37.4882 34.681 37.138 34.8568 36.9629C35.0326 36.7878 35.3842 36.0875 35.3842 35.9124C35.3842 35.7373 35.5601 35.3872 35.3842 35.2121C35.3842 34.8619 35.9117 34.3367 35.9117 34.3367C36.0875 34.3367 36.4392 33.9865 36.4392 33.9865L36.615 33.6363C36.615 33.6363 36.0875 33.8114 35.7359 34.1616C35.7359 34.1616 35.7359 33.6363 36.0875 33.4612C36.4392 33.2862 36.4392 33.1111 36.4392 33.1111C36.4392 33.1111 36.0875 32.936 36.0875 32.5858C36.0875 32.2357 36.2634 32.0606 36.2634 31.7104C36.2634 31.5353 36.2634 31.3602 36.2634 31.3602C36.2634 31.3602 36.4392 31.5353 36.615 31.7104C36.615 31.8855 36.7908 31.8855 36.7908 32.0606V32.4107C36.7908 32.4107 37.1425 32.2357 37.4941 32.2357C37.8458 32.2357 37.8458 32.2357 37.8458 32.2357C37.8458 32.2357 37.8458 31.8855 38.0216 31.5353C38.1974 31.3602 38.1974 31.1852 38.1974 31.1852C38.1974 31.1852 38.549 31.5353 38.549 31.7104C38.7249 31.8855 38.7249 32.0606 38.7249 32.4107C38.7249 32.5858 38.7249 32.7609 38.549 32.936C38.3732 33.2862 38.3732 33.2862 38.549 33.4612C38.7249 33.8114 39.0765 34.3367 39.0765 34.6868C39.0765 35.037 39.4282 35.7373 39.4282 36.2626C39.9556 36.7878 39.9556 36.9629 40.1314 37.138Z" fill="#014644"/>
<path d="M41.5392 40.4641L40.8359 39.0635C41.0118 39.5887 41.5392 40.6392 42.5942 42.0399C43.2974 42.9153 43.4733 43.7907 43.6491 44.4911C43.6491 44.4911 43.4733 43.6157 43.2974 43.0904C43.1216 42.7402 42.77 42.215 42.77 42.215L42.5942 42.0399C42.5942 42.0399 42.4183 41.6897 42.0667 41.1645C41.715 40.8143 41.715 40.6392 41.5392 40.4641Z" fill="#014644"/>
<path d="M43.4747 49.3944V46.418C43.4747 46.5931 43.2974 46.7681 43.2974 46.7681C43.2974 46.7681 43.1201 48.1688 43.1201 48.8691C43.2974 48.8691 43.4747 49.0442 43.4747 49.3944Z" fill="#014644"/>
<path d="M37.1416 52.1959C38.1965 53.4215 39.4273 54.2969 39.4273 54.2969C39.6031 54.1218 39.6031 53.9467 39.7789 53.7716C39.9548 53.4215 39.7789 53.0713 39.6031 52.7211C39.4273 52.371 39.2515 50.7952 39.2515 50.7952L37.6691 47.6437L35.5592 46.9434C35.5592 46.9434 35.0317 47.8188 35.0317 48.1689C35.0317 48.6942 36.0867 50.9703 37.1416 52.1959Z" fill="#014644"/>
<path d="M42.9446 54.8216L43.472 54.2963V52.1953C43.2962 51.8452 42.9446 51.495 42.7687 50.9697C42.2413 49.9192 41.7138 46.9428 41.7138 46.9428L39.4281 47.9933C39.4281 47.9933 39.6039 48.3435 39.6039 48.6936C39.6039 49.0438 39.9556 50.0943 40.6589 50.9697C41.1863 51.8451 40.8347 52.0202 40.6589 52.5455C40.483 53.0707 40.6589 53.4209 40.8347 54.2963C41.0105 55.1717 40.3072 55.3468 40.3072 55.3468C40.3072 55.3468 39.7798 55.1717 39.4281 55.1717C39.2523 55.1717 38.9006 55.1717 38.7248 55.1717C38.3732 55.1717 38.1974 54.6465 38.0215 54.2963C37.8457 53.9462 37.6699 53.9462 37.6699 53.9462C37.6699 53.9462 36.7908 52.1953 35.3842 51.1448C33.9776 50.0943 34.1534 49.2189 34.1534 49.2189L31.5161 46.0674V62H43.6478V54.9967L42.9446 54.8216ZM33.8018 52.5455C33.8018 52.8957 33.2743 52.8957 33.2743 52.8957V53.4209L33.0985 54.1212L31.8678 53.2458H32.0436L32.571 52.7206C32.571 52.7206 32.7469 52.1953 32.9227 52.0202C33.0985 51.8451 32.9227 51.6701 32.9227 50.9697C32.7469 50.2694 33.0985 48.1684 33.0985 48.1684C33.0985 48.1684 34.3293 49.394 34.1534 49.394C33.9776 49.5691 33.8018 49.9192 33.8018 49.9192C33.8018 49.9192 33.626 52.1953 33.8018 52.5455Z" fill="#014644"/>
<path d="M56.4837 20.8553L58.2419 17.5287L60.0001 14.2021L51.209 27.5085L53.3189 22.256L49.6266 28.7341C49.6266 28.7341 52.0881 23.8318 52.4398 22.7813C52.7914 21.7308 53.4947 19.8048 53.4947 19.8048C53.4947 19.8048 53.6705 18.7543 53.4947 18.5792C53.3189 18.2291 48.0442 29.9597 48.0442 29.9597C48.0442 29.9597 49.4508 26.6331 49.6266 25.5826C49.6266 24.5321 49.275 24.357 49.275 24.357C49.275 24.357 48.7475 28.7341 46.8135 30.8351C44.7036 32.9361 45.5827 34.862 45.4069 35.3873C45.2311 35.9125 45.2311 37.1381 43.6486 37.6634C42.0662 38.1886 40.6597 39.0641 40.6597 39.0641L41.5388 40.6398C41.7146 40.99 41.8904 41.1651 42.0662 41.3401C42.4179 42.0405 42.7695 42.3907 42.7695 42.3907L44.0003 42.2156C44.0003 42.2156 44.3519 41.6903 43.8245 41.1651C43.297 40.6398 42.9454 40.4647 42.9454 40.2896L42.7695 39.9395C42.7695 39.9395 43.297 40.2896 44.1761 40.6398C45.0552 40.99 46.286 41.1651 46.286 41.1651L46.1102 40.2896C46.1102 40.1146 46.286 39.9395 46.1102 39.7644C45.9343 39.5893 45.2311 39.4142 44.7036 39.2391C44.1761 39.2391 44.1761 39.0641 44.1761 39.0641L47.8684 39.5893C47.8684 39.5893 47.6926 38.889 47.3409 38.5388C46.9893 38.1886 46.286 38.0136 46.286 38.0136L45.9343 37.8385L45.7585 37.6634C45.7585 37.6634 47.3409 38.1886 48.3959 38.3637C49.4508 38.5388 50.5057 39.0641 50.5057 39.0641C50.5057 39.0641 50.3299 38.3637 49.9783 37.8385C49.4508 37.3132 49.6266 37.3132 49.0991 37.1381C48.5717 36.9631 47.6926 36.6129 47.6926 36.6129L46.9893 36.2627L51.9123 37.6634C51.9123 37.6634 51.5607 36.4378 51.0332 36.0876C50.5057 35.7375 48.5717 35.2122 48.5717 35.2122C48.5717 35.2122 51.9123 35.9125 52.2639 35.7375C52.6156 35.5624 53.3189 35.5624 53.3189 35.5624C53.3189 35.5624 52.4398 34.5119 52.0881 34.3368C51.9123 34.1617 51.209 34.3368 50.5057 34.3368C49.9783 34.3368 48.5717 33.9866 48.5717 33.9866C48.5717 33.9866 49.9783 34.1617 51.0332 33.9866C52.0881 33.8115 52.9672 33.6365 53.4947 32.761C54.0222 32.0607 54.5496 31.3604 54.5496 31.3604C54.5496 31.3604 54.7255 31.0102 54.3738 31.0102C54.0222 31.0102 53.6705 30.8351 53.6705 30.8351C53.6705 30.8351 53.4947 30.8351 53.1431 31.1853C52.7914 31.5355 51.9123 32.0607 51.0332 32.2358C50.3299 32.4109 50.1541 32.586 49.9783 32.4109C49.8024 32.4109 49.275 32.4109 49.275 32.4109C49.275 32.4109 51.5607 31.8856 52.2639 31.3604C52.7914 30.8351 54.0222 29.9597 54.7255 28.7341C55.4287 27.3334 55.9562 26.2829 55.9562 26.2829C55.9562 26.2829 55.0771 26.458 54.5496 27.3334C54.0222 28.0338 52.7914 29.6095 52.0881 30.1348C51.3848 30.66 51.209 30.8351 50.8574 31.0102C50.5057 31.1853 50.3299 31.1853 50.3299 31.1853C50.3299 31.1853 52.0881 30.1348 52.4398 29.6095C52.7914 29.0843 53.8463 27.8587 54.5496 26.6331C55.2529 25.4075 56.8353 22.0809 56.8353 22.0809C56.8353 22.0809 55.6046 22.9563 55.0771 24.0068C54.5496 24.8823 52.0881 28.0338 52.0881 28.0338L51.0332 29.0843C51.0332 29.0843 53.6705 25.9328 54.0222 25.0573C54.3738 24.1819 56.4837 20.8553 56.4837 20.8553Z" fill="#014644"/>
<path d="M15.8681 21.2054L13.934 17.8788L12 14.5522L21.3186 27.6835L19.0329 22.431L23.0768 28.9091C23.0768 28.9091 20.2637 24.0068 19.912 22.9563C19.5604 22.0809 18.8571 20.1549 18.8571 20.1549C18.8571 20.1549 18.6813 19.1044 18.8571 18.9293C19.0329 18.5792 24.835 30.3098 24.835 30.3098C24.835 30.3098 23.0768 26.8081 23.0768 25.7576C23.0768 24.7071 23.4285 24.532 23.4285 24.532C23.4285 24.532 24.1317 28.9091 26.2416 31.0101C28.3515 33.1111 27.6482 35.0371 27.824 35.5623C27.9998 36.0876 28.1757 37.3132 29.7581 37.8384C31.3405 38.3637 34.1536 39.7643 34.1536 39.7643C34.1536 39.7643 33.0987 40.1145 32.747 40.2896C32.5712 40.4647 32.2196 40.6397 32.0438 40.8148C31.8679 40.9899 31.5163 41.5152 31.5163 41.6902C31.1646 42.3906 30.9888 42.7408 30.9888 42.7408L29.7581 42.5657C29.7581 42.5657 29.4064 42.0404 29.9339 41.5152C30.4613 40.9899 30.813 40.8148 30.813 40.6397C30.813 40.4647 30.9888 40.2896 30.9888 40.2896C30.9888 40.2896 30.4613 40.6397 29.5822 40.9899C28.7031 41.3401 27.4724 41.5152 27.4724 41.5152C27.4724 41.5152 27.6482 40.6397 27.4724 40.6397C27.4724 40.4647 27.2965 40.2896 27.4724 40.1145C27.6482 39.9394 28.3515 39.7643 28.8789 39.5892C29.4064 39.4142 29.4064 39.4142 29.4064 39.4142L25.5383 39.7643C25.5383 39.7643 25.7141 39.064 26.0658 38.7138C26.4174 38.3637 27.1207 38.0135 27.1207 38.0135L27.4724 37.8384L27.6482 37.6633C27.6482 37.6633 26.0658 38.3637 25.0109 38.5387C23.9559 38.7138 22.901 39.2391 22.901 39.2391C22.901 39.2391 22.901 38.5387 23.4285 38.0135C23.9559 37.4882 23.7801 37.4882 24.3076 37.3132C24.835 37.1381 25.7141 36.7879 25.7141 36.7879L26.0658 36.4377L21.1428 38.0135C21.1428 38.0135 21.4944 36.7879 22.0219 36.4377C22.5493 35.9125 24.4834 35.5623 24.4834 35.5623C24.4834 35.5623 21.1428 36.2626 20.7911 36.2626C20.4395 36.2626 19.7362 36.0876 19.7362 36.0876C19.7362 36.0876 20.6153 34.862 20.7911 34.6869C20.9669 34.5118 21.6702 34.6869 22.3735 34.5118C22.901 34.5118 24.3076 34.3367 24.3076 34.3367C24.3076 34.3367 22.901 34.5118 21.8461 34.3367C20.7911 34.3367 19.912 33.9866 19.2087 33.2862C18.5054 32.5859 18.1538 31.8855 18.1538 31.8855C18.1538 31.8855 17.978 31.5354 18.3296 31.5354C18.8571 31.5354 19.0329 31.3603 19.0329 31.3603C19.0329 31.3603 19.2087 31.3603 19.5604 31.7105C19.912 32.0606 20.9669 32.5859 21.6702 32.761C22.3735 32.9361 22.5493 32.9361 22.7252 32.9361C22.901 32.9361 23.4285 32.9361 23.4285 32.9361C23.4285 32.9361 20.9669 32.4108 20.4395 31.8855C19.7362 31.3603 18.6813 30.66 17.978 29.2593C17.2747 28.0337 16.5714 26.8081 16.5714 26.8081C16.5714 26.8081 17.4505 26.9832 17.978 27.8586C18.5054 28.559 19.912 30.1347 20.6153 30.66C21.3186 31.0101 21.4944 31.3603 22.0219 31.3603C22.3735 31.5354 22.5493 31.5354 22.5493 31.5354C22.5493 31.5354 20.7911 30.4849 20.2637 29.9596C19.912 29.4344 18.6813 28.3839 17.978 27.1583C17.2747 25.9327 15.5164 22.6061 15.5164 22.6061C15.5164 22.6061 16.923 23.4815 17.4505 24.3569C17.978 25.2324 20.6153 28.3839 20.6153 28.3839L21.6702 29.4344C21.6702 29.4344 18.8571 26.2829 18.5054 25.4074C18.1538 24.532 15.8681 21.2054 15.8681 21.2054Z" fill="#014644"/>
</svg>
