<svg width="80" height="16" viewBox="0 0 80 16" fill="none" xmlns="http://www.w3.org/2000/svg">
<path d="M11.7083 14.3731C11.6002 14.373 11.4938 14.3468 11.3981 14.2966L7.99994 12.5101L4.60183 14.2966C4.49171 14.3544 4.3676 14.3804 4.24352 14.3714C4.11945 14.3624 4.00035 14.3189 3.89971 14.2458C3.79906 14.1727 3.72087 14.0729 3.67399 13.9577C3.6271 13.8424 3.61338 13.7164 3.63438 13.5938L4.28347 9.80992L1.53445 7.13058C1.44539 7.04373 1.38241 6.93369 1.35261 6.81292C1.32281 6.69214 1.32738 6.56544 1.36582 6.44712C1.40425 6.32881 1.47501 6.22361 1.5701 6.1434C1.66519 6.0632 1.78082 6.01119 1.90391 5.99325L5.70307 5.44116L7.40194 1.99872C7.46334 1.89476 7.55079 1.8086 7.65566 1.74874C7.76052 1.68889 7.87918 1.65741 7.99992 1.65741C8.12066 1.65741 8.23932 1.68889 8.34419 1.74874C8.44905 1.8086 8.5365 1.89476 8.5979 1.99872L10.2968 5.4411L14.0959 5.99319C14.219 6.01113 14.3347 6.06314 14.4298 6.14334C14.5248 6.22355 14.5956 6.32875 14.634 6.44706C14.6725 6.56538 14.6771 6.69208 14.6473 6.81286C14.6175 6.93363 14.5545 7.04367 14.4654 7.13052L11.7164 9.80986L12.3655 13.5937C12.3819 13.6894 12.3772 13.7875 12.3517 13.8812C12.3263 13.9749 12.2806 14.0619 12.218 14.1362C12.1554 14.2104 12.0774 14.27 11.9893 14.311C11.9013 14.3519 11.8053 14.3731 11.7082 14.373L11.7083 14.3731Z" fill="#FFBD00"/>
<path d="M27.7083 14.3731C27.6002 14.373 27.4938 14.3468 27.3981 14.2966L23.9999 12.5101L20.6018 14.2966C20.4917 14.3544 20.3676 14.3804 20.2435 14.3714C20.1194 14.3624 20.0004 14.3189 19.8997 14.2458C19.7991 14.1727 19.7209 14.0729 19.674 13.9577C19.6271 13.8424 19.6134 13.7164 19.6344 13.5938L20.2835 9.80992L17.5344 7.13058C17.4454 7.04373 17.3824 6.93369 17.3526 6.81292C17.3228 6.69214 17.3274 6.56544 17.3658 6.44712C17.4043 6.32881 17.475 6.22361 17.5701 6.1434C17.6652 6.0632 17.7808 6.01119 17.9039 5.99325L21.7031 5.44116L23.4019 1.99872C23.4633 1.89476 23.5508 1.8086 23.6557 1.74874C23.7605 1.68889 23.8792 1.65741 23.9999 1.65741C24.1207 1.65741 24.2393 1.68889 24.3442 1.74874C24.449 1.8086 24.5365 1.89476 24.5979 1.99872L26.2968 5.4411L30.0959 5.99319C30.219 6.01113 30.3347 6.06314 30.4298 6.14334C30.5248 6.22355 30.5956 6.32875 30.634 6.44706C30.6725 6.56538 30.6771 6.69208 30.6473 6.81286C30.6175 6.93363 30.5545 7.04367 30.4654 7.13052L27.7164 9.80986L28.3655 13.5937C28.3819 13.6894 28.3772 13.7875 28.3517 13.8812C28.3263 13.9749 28.2806 14.0619 28.218 14.1362C28.1554 14.2104 28.0774 14.27 27.9893 14.311C27.9013 14.3519 27.8053 14.3731 27.7082 14.373L27.7083 14.3731Z" fill="#FFBD00"/>
<path d="M43.7083 14.3731C43.6002 14.373 43.4938 14.3468 43.3981 14.2966L39.9999 12.5101L36.6018 14.2966C36.4917 14.3544 36.3676 14.3804 36.2435 14.3714C36.1194 14.3624 36.0004 14.3189 35.8997 14.2458C35.7991 14.1727 35.7209 14.0729 35.674 13.9577C35.6271 13.8424 35.6134 13.7164 35.6344 13.5938L36.2835 9.80992L33.5344 7.13058C33.4454 7.04373 33.3824 6.93369 33.3526 6.81292C33.3228 6.69214 33.3274 6.56544 33.3658 6.44712C33.4043 6.32881 33.475 6.22361 33.5701 6.1434C33.6652 6.0632 33.7808 6.01119 33.9039 5.99325L37.7031 5.44116L39.4019 1.99872C39.4633 1.89476 39.5508 1.8086 39.6557 1.74874C39.7605 1.68889 39.8792 1.65741 39.9999 1.65741C40.1207 1.65741 40.2393 1.68889 40.3442 1.74874C40.449 1.8086 40.5365 1.89476 40.5979 1.99872L42.2968 5.4411L46.0959 5.99319C46.219 6.01113 46.3347 6.06314 46.4298 6.14334C46.5248 6.22355 46.5956 6.32875 46.634 6.44706C46.6725 6.56538 46.6771 6.69208 46.6473 6.81286C46.6175 6.93363 46.5545 7.04367 46.4654 7.13052L43.7164 9.80986L44.3655 13.5937C44.3819 13.6894 44.3772 13.7875 44.3517 13.8812C44.3263 13.9749 44.2806 14.0619 44.218 14.1362C44.1554 14.2104 44.0774 14.27 43.9893 14.311C43.9013 14.3519 43.8053 14.3731 43.7082 14.373L43.7083 14.3731Z" fill="#FFBD00"/>
<path d="M59.7083 14.3731C59.6002 14.373 59.4938 14.3468 59.3981 14.2966L55.9999 12.5101L52.6018 14.2966C52.4917 14.3544 52.3676 14.3804 52.2435 14.3714C52.1194 14.3624 52.0004 14.3189 51.8997 14.2458C51.7991 14.1727 51.7209 14.0729 51.674 13.9577C51.6271 13.8424 51.6134 13.7164 51.6344 13.5938L52.2835 9.80992L49.5344 7.13058C49.4454 7.04373 49.3824 6.93369 49.3526 6.81292C49.3228 6.69214 49.3274 6.56544 49.3658 6.44712C49.4043 6.32881 49.475 6.22361 49.5701 6.1434C49.6652 6.0632 49.7808 6.01119 49.9039 5.99325L53.7031 5.44116L55.4019 1.99872C55.4633 1.89476 55.5508 1.8086 55.6557 1.74874C55.7605 1.68889 55.8792 1.65741 55.9999 1.65741C56.1207 1.65741 56.2393 1.68889 56.3442 1.74874C56.449 1.8086 56.5365 1.89476 56.5979 1.99872L58.2968 5.4411L62.0959 5.99319C62.219 6.01113 62.3347 6.06314 62.4298 6.14334C62.5248 6.22355 62.5956 6.32875 62.634 6.44706C62.6725 6.56538 62.6771 6.69208 62.6473 6.81286C62.6175 6.93363 62.5545 7.04367 62.4654 7.13052L59.7164 9.80986L60.3655 13.5937C60.3819 13.6894 60.3772 13.7875 60.3517 13.8812C60.3263 13.9749 60.2806 14.0619 60.218 14.1362C60.1554 14.2104 60.0774 14.27 59.9893 14.311C59.9013 14.3519 59.8053 14.3731 59.7082 14.373L59.7083 14.3731Z" fill="#FFBD00"/>
<path d="M75.7083 14.3731C75.6002 14.373 75.4938 14.3468 75.3981 14.2966L71.9999 12.5101L68.6018 14.2966C68.4917 14.3544 68.3676 14.3804 68.2435 14.3714C68.1194 14.3624 68.0004 14.3189 67.8997 14.2458C67.7991 14.1727 67.7209 14.0729 67.674 13.9577C67.6271 13.8424 67.6134 13.7164 67.6344 13.5938L68.2835 9.80992L65.5344 7.13058C65.4454 7.04373 65.3824 6.93369 65.3526 6.81292C65.3228 6.69214 65.3274 6.56544 65.3658 6.44712C65.4043 6.32881 65.475 6.22361 65.5701 6.1434C65.6652 6.0632 65.7808 6.01119 65.9039 5.99325L69.7031 5.44116L71.4019 1.99872C71.4633 1.89476 71.5508 1.8086 71.6557 1.74874C71.7605 1.68889 71.8792 1.65741 71.9999 1.65741C72.1207 1.65741 72.2393 1.68889 72.3442 1.74874C72.449 1.8086 72.5365 1.89476 72.5979 1.99872L74.2968 5.4411L78.0959 5.99319C78.219 6.01113 78.3347 6.06314 78.4298 6.14334C78.5248 6.22355 78.5956 6.32875 78.634 6.44706C78.6725 6.56538 78.6771 6.69208 78.6473 6.81286C78.6175 6.93363 78.5545 7.04367 78.4654 7.13052L75.7164 9.80986L76.3655 13.5937C76.3819 13.6894 76.3772 13.7875 76.3517 13.8812C76.3263 13.9749 76.2806 14.0619 76.218 14.1362C76.1554 14.2104 76.0774 14.27 75.9893 14.311C75.9013 14.3519 75.8053 14.3731 75.7082 14.373L75.7083 14.3731Z" fill="#3C4852" fill-opacity="0.15"/>
<path d="M75.7081 14.373C75.6 14.373 75.4936 14.3467 75.3979 14.2965L71.9998 12.5101L68.6016 14.2965C68.4915 14.3544 68.3674 14.3803 68.2433 14.3713C68.1193 14.3624 68.0002 14.3189 67.8995 14.2457C67.7989 14.1726 67.7207 14.0728 67.6738 13.9576C67.6269 13.8424 67.6132 13.7163 67.6342 13.5937L68.2833 9.80985L65.5343 7.13052C65.4452 7.04366 65.3822 6.93363 65.3524 6.81286C65.3226 6.69208 65.3272 6.56538 65.3656 6.44706C65.4041 6.32875 65.4748 6.22355 65.5699 6.14334C65.665 6.06314 65.7806 6.01113 65.9037 5.99319L69.7029 5.4411L71.4018 1.99866C71.4632 1.8947 71.5506 1.80854 71.6555 1.74868C71.7603 1.68883 71.879 1.65735 71.9997 1.65735C72.1205 1.65735 72.2391 1.68883 72.344 1.74868C72.4489 1.80854 72.5363 1.8947 72.5977 1.99866L74.2966 5.44104L78.0958 5.99313C78.2189 6.01107 78.3345 6.06308 78.4296 6.14328C78.5247 6.22349 78.5954 6.32869 78.6339 6.447C78.6723 6.56532 78.6769 6.69202 78.6471 6.8128C78.6173 6.93357 78.5543 7.04361 78.4652 7.13046L75.7162 9.80979L76.3653 13.5936C76.3817 13.6893 76.377 13.7875 76.3515 13.8812C76.3261 13.9749 76.2804 14.0619 76.2179 14.1361C76.1553 14.2103 76.0772 14.27 75.9891 14.3109C75.9011 14.3518 75.8052 14.373 75.7081 14.373L75.7081 14.373Z" fill="#FFBD00"/>
</svg>
