<svg width="32" height="32" viewBox="0 0 32 32" fill="none" xmlns="http://www.w3.org/2000/svg">
<path d="M32 4.52418C32 13.6827 32 22.8411 32 31.9996C21.3312 31.9996 10.6687 31.9996 0 31.9996C0 22.848 0 13.6963 0 4.51735C3.33125 4.51735 6.61875 4.51735 9.9125 4.51735C9.925 4.449 9.9375 4.40799 9.94375 4.36699C10.3063 2.01586 11.875 0.293516 14.0437 0.0816412C15.3562 -0.0482177 16.6875 -0.0140443 18.0063 0.0816412C19.4438 0.184161 20.5438 1.02483 21.35 2.31658C21.7625 2.97271 21.9875 3.71086 22.0938 4.52418C25.4 4.52418 28.7 4.52418 32 4.52418ZM30.1 29.9219C30.1 24.9667 30.1 20.0594 30.1 15.0906C30 15.2068 29.9312 15.2888 29.8625 15.364C28.4062 17.0453 26.6437 18.0637 24.5187 18.1936C22.9688 18.2824 21.4187 18.2346 19.8625 18.2482C19.7437 18.2482 19.625 18.2482 19.5063 18.2482C19.55 20.7361 17.9125 22.0483 16.3 22.1577C14.3687 22.2875 12.45 20.9958 12.475 18.2482C12.3625 18.2482 12.25 18.2482 12.1375 18.2482C10.8375 18.2482 9.53125 18.2551 8.23125 18.2482C5.775 18.2346 3.7125 17.2504 2.05625 15.2683C2.0125 15.2136 1.95625 15.1795 1.9 15.1248C1.9 20.0731 1.9 24.9872 1.9 29.9287C11.3062 29.9219 20.6938 29.9219 30.1 29.9219ZM1.88125 6.59509C1.88125 7.08036 1.86875 7.52461 1.88125 7.96886C1.90625 8.80953 1.85 9.66387 1.98125 10.4909C2.53125 13.8877 5.0125 16.1705 8.1875 16.1842C13.3938 16.2115 18.6 16.2115 23.8062 16.1842C26.9875 16.1636 29.4875 13.8877 30 10.484C30.1812 9.30846 30.0812 8.07822 30.1125 6.87532C30.1125 6.78646 30.1 6.69761 30.0938 6.60193C20.6938 6.59509 11.3063 6.59509 1.88125 6.59509ZM11.8562 4.51052C14.6187 4.51052 17.3812 4.51052 20.1437 4.51052C20.0187 3.36229 19.0375 2.28241 17.9312 2.14572C17.3438 2.07053 16.75 2.0842 16.1562 2.0842C15.4688 2.0842 14.7812 2.0637 14.1 2.13888C12.975 2.26874 11.975 3.36229 11.8562 4.51052ZM17.5812 18.2824C16.5062 18.2824 15.45 18.2824 14.4 18.2824C14.3375 19.417 14.8938 20.0731 15.8875 20.0799C16 20.0799 16.1188 20.0799 16.2313 20.0799C17.1375 20.0457 17.7125 19.2871 17.5812 18.2824Z" fill="white"/>
</svg>
