<svg width="32" height="32" viewBox="0 0 32 32" fill="none" xmlns="http://www.w3.org/2000/svg">
<path d="M0 15.0006C0.08125 14.4068 0.15 13.8068 0.24375 13.2131C1.30625 6.81307 6.5 1.50682 12.875 0.306817C16.4813 -0.374433 19.9375 0.0755666 23.225 1.72557C23.8938 2.06307 24.025 2.82557 23.5125 3.29432C23.2063 3.57557 22.8188 3.61307 22.3813 3.39432C21.3375 2.86932 20.25 2.45057 19.1 2.21307C14.5188 1.28182 10.3938 2.26932 6.81875 5.28807C4.15 7.54432 2.55 10.4506 2.0375 13.9131C1.50625 17.4881 2.2625 20.8006 4.25625 23.8193C4.28125 23.8631 4.3125 23.9006 4.425 23.9318C4.425 23.6193 4.40625 23.3068 4.43125 22.9943C4.4625 22.5568 4.80625 22.2131 5.23125 22.1631C5.66875 22.1131 6.08125 22.3506 6.225 22.7568C6.275 22.8943 6.29375 23.0443 6.29375 23.1881C6.3 24.3006 6.3 25.4193 6.29375 26.5318C6.2875 27.1881 5.9125 27.5568 5.2625 27.5568C4.15 27.5568 3.03125 27.5568 1.91875 27.5568C1.30625 27.5568 0.8875 27.1756 0.88125 26.6318C0.875 26.0881 1.30625 25.6943 1.90625 25.6818C2.34375 25.6756 2.775 25.6818 3.25625 25.6818C3.2 25.5818 3.1625 25.5131 3.11875 25.4506C1.30625 23.0006 0.28125 20.2506 0.05 17.2068C0.04375 17.1193 0.01875 17.0256 0 16.9381C0 16.2943 0 15.6443 0 15.0006Z" fill="white"/>
<path d="M14.9998 32.0001C14.4061 31.9188 13.8061 31.8501 13.2123 31.7501C11.6436 31.4876 10.1498 30.9751 8.73735 30.2501C8.23735 29.9938 8.04985 29.4563 8.27485 28.9876C8.5061 28.5063 9.0686 28.3251 9.5811 28.5813C11.0623 29.3313 12.6186 29.8251 14.2686 30.0126C17.7936 30.4188 21.0436 29.6563 23.9623 27.6438C27.0873 25.4938 29.0686 22.5376 29.8248 18.8188C30.5998 15.0126 29.8873 11.4563 27.7623 8.19385C27.7311 8.1501 27.7061 8.10635 27.6748 8.06885C27.6686 8.0626 27.6561 8.0626 27.5811 8.0251C27.5811 8.3501 27.5936 8.65009 27.5811 8.95009C27.5623 9.32509 27.3686 9.60009 27.0248 9.75009C26.6936 9.89384 26.3686 9.85009 26.0811 9.62509C25.8311 9.43759 25.7186 9.16885 25.7186 8.8626C25.7123 7.70635 25.7061 6.5501 25.7186 5.39385C25.7248 4.79385 26.1186 4.4251 26.7123 4.4251C27.8561 4.41885 29.0061 4.41885 30.1498 4.4251C30.7123 4.4251 31.1186 4.81885 31.1248 5.3501C31.1311 5.86885 30.7248 6.28135 30.1686 6.3001C29.9373 6.30635 29.7123 6.3001 29.4811 6.3001C29.2561 6.3001 29.0248 6.3001 28.7311 6.3001C28.8373 6.45635 28.9186 6.56885 28.9998 6.68135C30.7311 9.1001 31.7186 11.7876 31.9498 14.7563C31.9561 14.8563 31.9873 14.9563 31.9998 15.0563C31.9998 15.7001 31.9998 16.3501 31.9998 16.9938C31.9811 17.0751 31.9623 17.1563 31.9498 17.2376C31.8436 17.9751 31.7748 18.7251 31.6186 19.4563C30.3373 25.6626 25.0311 30.7376 18.7873 31.7501C18.1936 31.8438 17.5936 31.9126 16.9998 31.9938C16.3311 32.0001 15.6686 32.0001 14.9998 32.0001Z" fill="white"/>
<path d="M19.4374 11.9375C19.9749 11.9375 20.4624 11.9312 20.9499 11.9375C22.2374 11.95 23.1812 12.8875 23.1874 14.1687C23.1937 16.6375 23.1937 19.1062 23.1874 21.575C23.1874 22.8625 22.2374 23.8062 20.9562 23.8125C17.6562 23.8187 14.3499 23.8187 11.0499 23.8125C9.76865 23.8125 8.81865 22.8625 8.81865 21.575C8.8124 19.1062 8.8124 16.6375 8.81865 14.1687C8.81865 12.8875 9.7749 11.9437 11.0562 11.9375C11.5437 11.9312 12.0312 11.9375 12.5687 11.9375C12.5687 11.4187 12.5687 10.9125 12.5687 10.4062C12.5687 9.925 12.6999 9.48125 12.9874 9.09375C13.4124 8.51875 13.9812 8.20625 14.6937 8.19375C15.5687 8.175 16.4437 8.175 17.3187 8.19375C18.4749 8.2125 19.4124 9.15625 19.4374 10.3125C19.4437 10.8437 19.4374 11.3687 19.4374 11.9375ZM14.4374 17.575C14.4374 17.8875 14.4437 18.1687 14.4374 18.45C14.4312 19.025 14.0249 19.4437 13.4874 19.4375C12.9624 19.4312 12.5687 19.0187 12.5624 18.4625C12.5562 18.175 12.5624 17.8875 12.5624 17.65C11.9187 17.525 11.3124 17.4062 10.6999 17.2875C10.7062 17.2625 10.6937 17.2937 10.6937 17.3187C10.6937 18.7375 10.6937 20.15 10.6937 21.5687C10.6937 21.875 10.8749 21.95 11.1437 21.95C14.3812 21.95 17.6187 21.95 20.8624 21.95C21.2249 21.95 21.3187 21.8562 21.3187 21.4812C21.3187 20.3375 21.3187 19.1875 21.3187 18.0437C21.3187 17.775 21.3187 17.5125 21.3187 17.2875C20.6874 17.4062 20.0874 17.525 19.4437 17.65C19.4437 17.8875 19.4499 18.1812 19.4437 18.4687C19.4312 19.025 19.0374 19.4375 18.5187 19.4437C17.9812 19.45 17.5812 19.0312 17.5749 18.4562C17.5687 18.1687 17.5749 17.8812 17.5749 17.5812C16.5062 17.575 15.4937 17.575 14.4374 17.575ZM16.0312 13.8125C14.4187 13.8125 12.8062 13.8125 11.1937 13.8125C10.7437 13.8125 10.6187 13.9625 10.7124 14.4125C10.8687 15.1562 11.4749 15.6812 12.2374 15.6875C14.7437 15.6937 17.2499 15.6937 19.7562 15.6875C20.5312 15.6875 21.1437 15.1437 21.2874 14.3875C21.3687 13.9625 21.2437 13.8187 20.8062 13.8187C19.2187 13.8125 17.6249 13.8125 16.0312 13.8125ZM17.5624 11.925C17.5624 11.4062 17.5624 10.9187 17.5624 10.4312C17.5624 10.1937 17.4374 10.0625 17.1999 10.0625C16.3999 10.0625 15.5999 10.05 14.7999 10.075C14.6812 10.0812 14.4687 10.2437 14.4624 10.3437C14.4249 10.8687 14.4437 11.3937 14.4437 11.925C15.4937 11.925 16.5124 11.925 17.5624 11.925Z" fill="white"/>
</svg>
