<svg width="32" height="32" viewBox="0 0 32 32" fill="none" xmlns="http://www.w3.org/2000/svg">
<path d="M17.6246 31.9999C17.0808 31.7499 16.9246 31.3187 16.9308 30.7374C16.9558 28.6437 16.9496 26.5499 16.9371 24.4562C16.9308 23.0374 17.4183 21.8374 18.4308 20.8437C19.4933 19.7999 20.5121 18.7062 21.6183 17.7187C22.8683 16.6062 24.3621 16.3562 25.9683 16.7999C26.0496 16.8249 26.1308 16.8437 26.2058 16.8687C26.2246 16.8749 26.2496 16.8687 26.3058 16.8624C26.3058 16.7562 26.3058 16.6499 26.3058 16.5374C26.3058 15.0999 26.2933 13.6624 26.3121 12.2249C26.3433 9.77493 28.2621 7.76243 30.7058 7.56868C31.3058 7.51868 31.7371 7.69368 31.9996 8.24993C31.9996 12.0624 31.9996 15.8749 31.9996 19.6874C31.9246 19.9999 31.8558 20.3124 31.7683 20.6187C31.5496 21.3749 31.0559 21.9687 30.5996 22.5874C29.1996 24.4937 27.8371 26.4187 26.4683 28.3499C26.3808 28.4749 26.3246 28.6499 26.3183 28.7999C26.2996 29.4437 26.2871 30.0937 26.3183 30.7374C26.3496 31.3187 26.1621 31.7499 25.6246 31.9999C22.9558 31.9999 20.2933 31.9999 17.6246 31.9999ZM24.4371 30.1124C24.4371 29.5249 24.4121 28.9624 24.4496 28.3999C24.4621 28.1437 24.5308 27.8499 24.6746 27.6437C26.2308 25.4562 27.7933 23.2687 29.3871 21.1062C29.8808 20.4374 30.1308 19.7374 30.1308 18.9124C30.1246 15.9312 30.1246 12.9562 30.1246 9.97493C30.1246 9.86243 30.1246 9.74993 30.1246 9.63743C29.0496 9.89993 28.1996 11.0374 28.1933 12.2562C28.1808 14.2999 28.1746 16.3374 28.1996 18.3812C28.2058 18.8249 28.0808 19.1562 27.7746 19.4624C26.1621 21.0624 24.5621 22.6687 22.9558 24.2749C22.8746 24.3562 22.7933 24.4374 22.7058 24.5124C22.1933 24.9124 21.4621 24.6999 21.2496 24.0874C21.0996 23.6562 21.2621 23.3249 21.5683 23.0187C22.9121 21.6812 24.2496 20.3374 25.5871 18.9999C25.6621 18.9249 25.7371 18.8437 25.8183 18.7562C24.8621 18.2874 23.6433 18.3999 22.8871 19.0999C21.8371 20.0812 20.8433 21.1187 19.8121 22.1187C19.1308 22.7812 18.8058 23.5687 18.8121 24.5187C18.8246 26.2687 18.8183 28.0187 18.8183 29.7687C18.8183 29.8812 18.8183 29.9937 18.8183 30.1187C20.6933 30.1124 22.5433 30.1124 24.4371 30.1124Z" fill="white"/>
<path d="M0 8.24998C0.425 7.54998 0.74375 7.43748 1.81875 7.64373C4.04375 8.06248 5.6625 9.98749 5.6875 12.2562C5.7 13.675 5.6875 15.0875 5.6875 16.5062C5.6875 16.6187 5.6875 16.7312 5.6875 16.875C5.98125 16.8062 6.24375 16.7312 6.5125 16.6812C8.15 16.3937 9.5625 16.8625 10.7375 18.0187C11.7188 18.9812 12.6875 19.9562 13.6562 20.9312C14.6062 21.8875 15.0625 23.0437 15.0625 24.3937C15.0562 26.5062 15.05 28.625 15.0688 30.7375C15.075 31.3187 14.9125 31.75 14.375 32C11.7063 32 9.04375 32 6.375 32C5.83125 31.75 5.65 31.325 5.68125 30.7437C5.7125 30.1125 5.7 29.475 5.68125 28.8375C5.675 28.6625 5.61875 28.4687 5.51875 28.325C4.71875 27.1687 3.90625 26.025 3.0875 24.8812C2.4 23.9187 1.7 22.9562 0.9875 22.0125C0.46875 21.3125 0.175 20.525 0 19.6875C0 15.875 0 12.0625 0 8.24998ZM1.8875 9.63124C1.88125 9.69374 1.875 9.73123 1.875 9.77498C1.875 12.9 1.8625 16.025 1.8875 19.15C1.89375 19.5875 2.05 20.05 2.24375 20.4562C2.425 20.8437 2.75 21.1625 3 21.5187C4.425 23.5312 5.85 25.55 7.275 27.5562C7.46875 27.8312 7.56875 28.1187 7.5625 28.4562C7.55 29.0062 7.5625 29.5562 7.5625 30.1062C9.45 30.1062 11.3125 30.1062 13.1687 30.1062C13.175 30.0562 13.1875 30.025 13.1875 30C13.1875 28.0937 13.2125 26.1875 13.175 24.2812C13.1687 23.8312 13.05 23.325 12.8125 22.95C12.475 22.4125 12.0063 21.95 11.5625 21.4937C10.7625 20.675 9.95625 19.8562 9.1125 19.0875C8.34375 18.3937 7.05625 18.2812 6.20625 18.7625C6.2875 18.8437 6.35625 18.9312 6.4375 19.0062C7.7875 20.3562 9.13125 21.7 10.4812 23.05C10.9187 23.4875 10.9375 24.0437 10.55 24.4375C10.1687 24.825 9.59375 24.8 9.1625 24.375C7.4875 22.7062 5.81875 21.0312 4.14375 19.3625C3.9 19.1187 3.80625 18.8437 3.8125 18.4937C3.825 16.3875 3.8375 14.2875 3.8125 12.1812C3.7875 11.0187 2.99375 9.99374 1.8875 9.63124Z" fill="white"/>
<path d="M16.4371 0C17.1246 0.15 17.7809 0.3625 18.3246 0.8375C19.5371 1.89375 20.0309 3.225 19.6059 4.7875C19.1934 6.30625 18.1434 7.2125 16.5871 7.5125C16.5684 7.51875 16.5496 7.525 16.4746 7.55625C16.7996 7.625 17.0809 7.675 17.3559 7.74375C19.8371 8.375 21.5434 10.5063 21.6184 13.0688C21.6246 13.3938 21.6246 13.7125 21.6246 14.0375C21.6184 14.6875 21.2434 15.0625 20.5934 15.0688C18.2496 15.0688 15.9059 15.0688 13.5621 15.0688C12.8434 15.0688 12.1246 15.075 11.4059 15.0688C10.7559 15.0625 10.3871 14.6875 10.3684 14.0375C10.3371 12.8938 10.4121 11.7688 10.9496 10.725C11.8559 8.975 13.2746 7.94375 15.2184 7.63125C15.2996 7.61875 15.3746 7.6 15.4621 7.5625C14.8371 7.43125 14.2684 7.20625 13.7559 6.825C12.5621 5.93125 11.9809 4.4 12.3496 2.98125C12.7559 1.39375 13.7621 0.40625 15.3809 0.06875C15.4434 0.05625 15.4996 0.03125 15.5559 0.0125C15.8559 0 16.1434 0 16.4371 0ZM19.7559 13.175C19.6809 11.7188 19.0621 10.6 17.8059 9.9125C16.4809 9.1875 15.1371 9.25625 13.8809 10.1062C12.8184 10.825 12.2934 11.8688 12.2496 13.175C14.7621 13.175 17.2371 13.175 19.7559 13.175ZM15.9934 5.6875C17.0121 5.69375 17.8621 4.84375 17.8684 3.825C17.8746 2.79375 17.0184 1.9 16.0184 1.88125C15.0121 1.8625 14.1246 2.76875 14.1246 3.8125C14.1246 4.83125 14.9746 5.68125 15.9934 5.6875Z" fill="white"/>
</svg>
