<svg width="29" height="29" viewBox="0 0 29 29" fill="none" xmlns="http://www.w3.org/2000/svg">
<g clip-path="url(#clip0_244_148)">
<g clip-path="url(#clip1_244_148)">
<path d="M16.0699 28.9998C15.5914 28.7798 15.4539 28.4003 15.4594 27.8888C15.4814 26.0463 15.4759 24.2038 15.4649 22.3613C15.4594 21.1128 15.8884 20.0568 16.7794 19.1823C17.7144 18.2638 18.6109 17.3013 19.5844 16.4323C20.6844 15.4533 21.9989 15.2333 23.4124 15.6238C23.4839 15.6458 23.5554 15.6623 23.6214 15.6843C23.6379 15.6898 23.6599 15.6843 23.7094 15.6788C23.7094 15.5853 23.7094 15.4918 23.7094 15.3928C23.7094 14.1278 23.6984 12.8628 23.7149 11.5978C23.7424 9.44182 25.4309 7.67082 27.5814 7.50032C28.1094 7.45632 28.4889 7.61032 28.7199 8.09982C28.7199 11.4548 28.7199 14.8098 28.7199 18.1648C28.6539 18.4398 28.5934 18.7148 28.5164 18.9843C28.3239 19.6498 27.8894 20.1723 27.4879 20.7168C26.2559 22.3943 25.0569 24.0883 23.8524 25.7878C23.7754 25.8978 23.7259 26.0518 23.7204 26.1838C23.7039 26.7503 23.6929 27.3223 23.7204 27.8888C23.7479 28.4003 23.5829 28.7798 23.1099 28.9998C20.7614 28.9998 18.4184 28.9998 16.0699 28.9998ZM22.0649 27.3388C22.0649 26.8218 22.0429 26.3268 22.0759 25.8318C22.0869 25.6063 22.1474 25.3478 22.2739 25.1663C23.6434 23.2413 25.0184 21.3163 26.4209 19.4133C26.8554 18.8248 27.0754 18.2088 27.0754 17.4828C27.0699 14.8593 27.0699 12.2413 27.0699 9.61782C27.0699 9.51882 27.0699 9.41982 27.0699 9.32082C26.1239 9.55182 25.3759 10.5528 25.3704 11.6253C25.3594 13.4238 25.3539 15.2168 25.3759 17.0153C25.3814 17.4058 25.2714 17.6973 25.0019 17.9668C23.5829 19.3748 22.1749 20.7883 20.7614 22.2018C20.6899 22.2733 20.6184 22.3448 20.5414 22.4108C20.0904 22.7628 19.4469 22.5758 19.2599 22.0368C19.1279 21.6573 19.2709 21.3658 19.5404 21.0963C20.7229 19.9193 21.8999 18.7368 23.0769 17.5598C23.1429 17.4938 23.2089 17.4223 23.2804 17.3453C22.4389 16.9328 21.3664 17.0318 20.7009 17.6478C19.7769 18.5113 18.9024 19.4243 17.9949 20.3043C17.3954 20.8873 17.1094 21.5803 17.1149 22.4163C17.1259 23.9563 17.1204 25.4963 17.1204 27.0363C17.1204 27.1353 17.1204 27.2343 17.1204 27.3443C18.7704 27.3388 20.3984 27.3388 22.0649 27.3388Z" fill="#3C4852"/>
<path d="M0.560059 8.09973C0.934059 7.48373 1.21456 7.38473 2.16056 7.56623C4.11856 7.93473 5.54306 9.62873 5.56506 11.6252C5.57606 12.8737 5.56506 14.1167 5.56506 15.3652C5.56506 15.4642 5.56506 15.5632 5.56506 15.6897C5.82356 15.6292 6.05456 15.5632 6.29106 15.5192C7.73206 15.2662 8.97506 15.6787 10.0091 16.6962C10.8726 17.5432 11.7251 18.4012 12.5776 19.2592C13.4136 20.1007 13.8151 21.1182 13.8151 22.3062C13.8096 24.1652 13.8041 26.0297 13.8206 27.8887C13.8261 28.4002 13.6831 28.7797 13.2101 28.9997C10.8616 28.9997 8.51856 28.9997 6.17006 28.9997C5.69156 28.7797 5.53206 28.4057 5.55956 27.8942C5.58706 27.3387 5.57606 26.7777 5.55956 26.2167C5.55406 26.0627 5.50456 25.8922 5.41656 25.7657C4.71256 24.7482 3.99756 23.7417 3.27706 22.7352C2.67206 21.8882 2.05606 21.0412 1.42906 20.2107C0.972559 19.5947 0.714059 18.9017 0.560059 18.1647C0.560059 14.8097 0.560059 11.4547 0.560059 8.09973ZM2.22106 9.31523C2.21556 9.37023 2.21006 9.40323 2.21006 9.44173C2.21006 12.1917 2.19906 14.9417 2.22106 17.6917C2.22656 18.0767 2.36406 18.4837 2.53456 18.8412C2.69406 19.1822 2.98006 19.4627 3.20006 19.7762C4.45406 21.5472 5.70806 23.3237 6.96206 25.0892C7.13256 25.3312 7.22056 25.5842 7.21506 25.8812C7.20406 26.3652 7.21506 26.8492 7.21506 27.3332C8.87606 27.3332 10.5151 27.3332 12.1486 27.3332C12.1541 27.2892 12.1651 27.2617 12.1651 27.2397C12.1651 25.5622 12.1871 23.8847 12.1541 22.2072C12.1486 21.8112 12.0441 21.3657 11.8351 21.0357C11.5381 20.5627 11.1256 20.1557 10.7351 19.7542C10.0311 19.0337 9.32156 18.3132 8.57906 17.6367C7.90256 17.0262 6.76956 16.9272 6.02156 17.3507C6.09306 17.4222 6.15356 17.4992 6.22506 17.5652C7.41306 18.7532 8.59556 19.9357 9.78356 21.1237C10.1686 21.5087 10.1851 21.9982 9.84406 22.3447C9.50856 22.6857 9.00256 22.6637 8.62306 22.2897C7.14906 20.8212 5.68056 19.3472 4.20656 17.8787C3.99206 17.6642 3.90956 17.4222 3.91506 17.1142C3.92606 15.2607 3.93706 13.4127 3.91506 11.5592C3.89306 10.5362 3.19456 9.63423 2.22106 9.31523Z" fill="#3C4852"/>
<path d="M15.0248 0.839844C15.6298 0.971844 16.2073 1.15884 16.6858 1.57684C17.7528 2.50634 18.1873 3.67784 17.8133 5.05284C17.4503 6.38934 16.5263 7.18684 15.1568 7.45084C15.1403 7.45634 15.1238 7.46184 15.0578 7.48934C15.3438 7.54984 15.5913 7.59384 15.8333 7.65434C18.0168 8.20984 19.5183 10.0853 19.5843 12.3403C19.5898 12.6263 19.5898 12.9068 19.5898 13.1928C19.5843 13.7648 19.2543 14.0948 18.6823 14.1003C16.6198 14.1003 14.5573 14.1003 12.4948 14.1003C11.8623 14.1003 11.2298 14.1058 10.5973 14.1003C10.0253 14.0948 9.70078 13.7648 9.68428 13.1928C9.65678 12.1863 9.72278 11.1963 10.1958 10.2778C10.9933 8.73784 12.2418 7.83034 13.9523 7.55534C14.0238 7.54434 14.0898 7.52784 14.1668 7.49484C13.6168 7.37934 13.1163 7.18134 12.6653 6.84584C11.6148 6.05934 11.1033 4.71184 11.4278 3.46334C11.7853 2.06634 12.6708 1.19734 14.0953 0.900344C14.1503 0.889344 14.1998 0.867344 14.2493 0.850844C14.5133 0.839844 14.7663 0.839844 15.0248 0.839844ZM17.9453 12.4338C17.8793 11.1523 17.3348 10.1678 16.2293 9.56284C15.0633 8.92484 13.8808 8.98534 12.7753 9.73334C11.8403 10.3658 11.3783 11.2843 11.3398 12.4338C13.5508 12.4338 15.7288 12.4338 17.9453 12.4338ZM14.6343 5.84484C15.5308 5.85034 16.2788 5.10234 16.2843 4.20584C16.2898 3.29834 15.5363 2.51184 14.6563 2.49534C13.7708 2.47884 12.9898 3.27634 12.9898 4.19484C12.9898 5.09134 13.7378 5.83934 14.6343 5.84484Z" fill="#3C4852"/>
</g>
</g>
<defs>
<clipPath id="clip0_244_148">
<rect width="28.16" height="28.16" fill="white" transform="translate(0.560059 0.839844)"/>
</clipPath>
<clipPath id="clip1_244_148">
<rect width="28.16" height="28.16" fill="white" transform="translate(0.560059 0.839844)"/>
</clipPath>
</defs>
</svg>
