<svg width="52" height="56" viewBox="0 0 52 56" fill="none" xmlns="http://www.w3.org/2000/svg">
<rect width="52" height="56" rx="4" fill="#F3F4F5"/>
<path d="M38.4853 32.9106C37.9823 36.332 36.5343 39.2667 34.1494 41.7274C31.7049 44.2513 28.7465 45.7921 25.2052 46.2619C25.1991 46.1311 25.193 46.0538 25.1923 45.9765C25.1726 43.3761 25.157 40.7757 25.1292 38.1759C25.1265 37.9414 25.1909 37.839 25.4187 37.7549C27.4287 37.0133 28.9472 35.728 29.8047 33.7275C29.863 33.5919 29.9051 33.4496 29.9518 33.3086C29.9952 33.1791 30.0345 33.0483 30.0779 32.9106H38.4853Z" fill="#302175"/>
<path d="M21.3371 16.0503C21.329 18.6318 21.3188 21.2125 21.3141 23.794C21.3141 23.9669 21.293 24.0774 21.0978 24.1492C18.7611 25.0108 17.1626 26.5836 16.463 29.0098C16.4576 29.0288 16.4474 29.0464 16.4291 29.0884H8.08887C8.36477 26.2358 9.45348 23.7438 11.1964 21.5203C14.0531 17.8766 18.0296 16.0462 21.3236 15.7622C21.3283 15.8585 21.3371 15.9547 21.3371 16.0503Z" fill="#302175"/>
<path d="M21.3364 38.2134C21.3065 40.7549 21.293 43.2964 21.274 45.8378C21.2733 45.9442 21.2652 46.05 21.2577 46.2195C20.6259 46.1083 20.0185 46.0371 19.4288 45.8927C15.7782 44.9999 12.9582 42.891 10.7909 39.8763C9.23107 37.7057 8.28743 35.2774 8 32.917H16.3728C16.5239 33.3088 16.6446 33.7081 16.8263 34.0776C17.7089 35.872 19.1495 37.0447 21.0001 37.7335C21.2564 37.8284 21.3391 37.9396 21.3364 38.2134Z" fill="#302175"/>
<path d="M43.9973 15.3038V14.9438C42.9601 15.1432 41.9751 15.3323 40.9535 15.5282V11.9936C39.938 12.1855 38.976 12.3678 37.9897 12.5542V9C29.7661 9.74976 24.3083 16.6027 23.8337 23.2224H27.3243C27.1182 24.242 26.9168 25.2391 26.7053 26.2872H30.3382C30.1437 27.2701 29.9552 28.2219 29.7566 29.2259C29.9627 29.2259 30.0786 29.2252 30.1952 29.2252C32.9936 29.2259 35.7926 29.2218 38.591 29.2313C38.871 29.2327 38.991 29.1601 39.077 28.8754C39.7943 26.4946 41.2924 24.8819 43.7444 24.2501C43.9824 24.1891 44 24.0732 44 23.8779C43.9959 21.0199 43.9973 18.1618 43.9973 15.3038ZM24.6554 22.8421H24.2208C24.7015 19.5326 25.9949 16.6427 28.2482 14.2124C30.7673 11.4947 33.887 9.92127 37.5863 9.41555C37.5924 9.55181 37.6006 9.64807 37.6006 9.74434C37.6013 12.3549 37.5999 14.9655 37.6033 17.5761C37.6033 17.7558 37.5938 17.8771 37.3735 17.9422C35.0374 18.6296 33.5515 20.1935 32.7888 22.4713C32.6878 22.775 32.5509 22.8509 32.2492 22.8489C29.7179 22.8367 27.1866 22.8421 24.6554 22.8421ZM43.2977 23.9721C40.9948 24.6812 39.538 26.2485 38.7883 28.5032C38.6961 28.7805 38.5761 28.8598 38.2941 28.8585C35.7336 28.8476 33.1739 28.8517 30.6134 28.8517H30.1843C30.3843 27.9982 30.564 27.203 30.768 26.414C30.7856 26.3475 30.968 26.2872 31.0737 26.2865C32.5665 26.2784 34.0592 26.2723 35.552 26.2879C35.8407 26.2913 35.9519 26.2024 36.0346 25.9252C36.7132 23.6495 38.1192 22.0632 40.4369 21.3636C40.5969 21.3155 40.7603 21.2755 40.9562 21.2233V15.9512C41.8429 15.7614 42.7059 15.577 43.617 15.3818V15.7838C43.617 18.3632 43.6129 20.9433 43.6237 23.5234C43.6251 23.7857 43.5539 23.8928 43.2977 23.9721Z" fill="#302175"/>
</svg>
